<?xml version="1.0" encoding="utf-8"?>
<!-- Generator: Adobe Illustrator 27.5.0, SVG Export Plug-In . SVG Version: 6.00 Build 0)  -->
<svg version="1.1" xmlns="http://www.w3.org/2000/svg" xmlns:xlink="http://www.w3.org/1999/xlink" x="0px" y="0px"
	 viewBox="0 0 500 500" style="enable-background:new 0 0 500 500;" xml:space="preserve">
<g id="BACKGROUND">
	<rect style="fill:#8DB5B6;" width="500" height="500"/>
</g>
<g id="OBJECTS_1_">
	<path style="fill:#F9FFF5;" d="M56.603,105.068c2.395,1.622,5.408,2.238,8.203,2.732c3.662,0.647,7.317,1.147,11.038,1.252
		c3.42,0.097,6.846,0.061,10.268,0.146c3.497,0.087,7.134-0.692,10.591-1.167c6.924-0.951,13.521-2.008,19.354-6.113
		c2.062-1.451,4.03-2.837,5.121-5.183c1.167-2.508,0.802-5.255,0.138-7.832c-1.505-5.846-9.278-6.447-14.123-5.813
		c-2.988,0.391-5.492,1.485-8.017,3.055c-0.036,0.022-0.067,0.049-0.102,0.071c-0.029-0.426-0.084-0.869-0.195-1.354
		c-0.617-2.711-3.023-4.201-5.548-4.801c-5.235-1.243-12.218,1.889-13.423,7.397c-2.811-2.411-6.171-2.994-9.607-0.959
		c-1.706,1.011-3.212,2.663-3.741,4.585c-0.265,0.963-0.141,2.062-0.038,3.031c0.022,0.207,0.058,0.393,0.099,0.569
		c-0.523-0.358-1.118-0.635-1.599-0.828c-2.539-1.023-5.604-1.47-8.018,0.023C52.649,96.572,52.338,102.18,56.603,105.068z"/>
	<path style="fill:#F9FFF5;" d="M191.744,70.13c3.44,0.048,6.746,0.359,10.201,0.08c3.175-0.256,6.38-0.601,9.511-1.188
		c5.499-1.033,12.14-2.085,16.251-6.208c2.881-2.889,2.928-7.44-0.711-9.775c-2.109-1.353-4.332-1.662-6.803-1.67
		c-1.231-0.005-2.349,0.572-3.378,1.316c-0.049-0.466-0.169-0.931-0.38-1.391c-1.421-3.099-3.742-3.97-6.68-5.113
		c-3.566-1.389-9.338,0.063-12.245,3.211c-1.099-4.684-6.283-7.336-11.205-6.795c-3.115,0.342-7.104,4.114-8.111,7.766
		c-0.786-0.95-1.624-1.701-2.928-2.227c-1.997-0.804-4.514,0.187-6.299,1.058c-4.35,2.125-7.956,5.952-7.251,11.069
		c0.666,4.828,6.786,6.986,10.773,8.078c2.713,0.742,5.535,1.026,8.319,1.358C184.51,70.14,188.03,70.078,191.744,70.13z"/>
	<path style="fill:#F9FFF5;" d="M234.526,141.778c2.8-2.771,1.4-7.574-0.843-10.414c-2.118-2.682-6.719-2.933-9.663-1.197
		c0.039-2.534-2.445-5.087-4.523-6.469c-4.457-2.962-10.843-3.912-16.005-2.777c-5.229,1.149-9.162,4.788-11.949,9.174
		c-1.845,2.902-2.341,6.091-1.579,9.177c-1.566-1.471-4.638-1.784-6.523-1.475c-3.311,0.545-6.447,2.77-7.526,5.992
		c-0.996,2.973,1.121,6.248,3.96,7.376c5.148,2.045,11.2,2.913,16.71,3.22c5.919,0.33,11.838,0.013,17.706-0.718
		c5.327-0.662,10.397-1.101,15.581-2.59c2.807-0.806,6.561-1.534,7.797-4.605C238.919,143.362,236.951,142.12,234.526,141.778z"/>
	<path style="fill:#F9FFF5;" d="M66.264,204.915c4.376,0.023,8.39-0.258,12.614-1.423c3.085-0.851,6.141-2.045,7.601-5.1
		c1.215-2.542-0.499-5.232-2.296-6.93c-2.319-2.19-5.095-1.584-7.753-0.894c-0.726-5.561-6.851-8.064-12.007-7.045
		c-2.797,0.553-5.372,2.217-6.788,4.697c-0.804,1.408-0.796,2.689-0.392,3.895c-3.609-0.982-8.604,1.238-8.284,5.276
		c0.203,2.563,2.951,4.679,5.016,5.833C57.457,205.173,62.436,204.896,66.264,204.915z"/>
	<path style="fill:#F9FFF5;" d="M129.067,272.915c-1.702-1.069-4.441-0.929-6.261-0.326c-0.708,0.234-1.527,0.474-2.159,0.924
		c1.031-5.946-4.46-10.442-9.833-12.522c-3.525-1.364-7.888-0.648-11.105,1.177c-1.473,0.836-2.658,1.994-3.84,3.189
		c-0.648,0.655-1.03,1.44-1.407,2.27c-0.081,0.179-0.11,0.53-0.132,0.917c-2.152-3.044-8.251-3.739-11.308-3.241
		c-2.89,0.471-5.793,1.832-7.127,4.569c-0.495,1.016-0.548,2.098-0.343,3.168c-3.133-0.773-6.42-0.435-9.429,1.424
		c-3.404,2.104-4.082,6.917-1.79,9.974c3.238,4.319,9.319,6.233,14.407,7.015c3.198,0.49,6.517,0.317,9.744,0.438
		c3.28,0.123,6.694,0.328,9.953-0.17c3.241-0.495,6.673-0.23,9.871-0.867c3.192-0.637,6.364-0.99,9.58-1.447
		c4.938-0.7,10.502-2.485,13.719-6.497C134.476,279.329,132.601,275.136,129.067,272.915z"/>
	<path style="fill:#F9FFF5;" d="M422.018,61.433c1.852-3.269,1.355-7.695-1.805-10.002c-2.918-2.129-6.918-1.989-9.959-0.219
		c-0.527-3.933-3.582-6.28-6.777-8.593c-3.959-2.865-9.059-3.528-13.836-3.087c-6.48,0.598-12.279,6.635-12.168,12.73
		c-1.621-0.415-3.441-0.349-4.648,0.094c-3.125,1.144-4.967,4.933-3.818,8.037c1.432,3.876,6.262,5.47,9.848,6.396
		c4.824,1.246,9.959,1.366,14.92,1.441c5.565,0.084,10.975-0.375,16.467-1.206C414.336,66.405,419.787,65.366,422.018,61.433z"/>
	<path style="fill:#F9FFF5;" d="M453.92,183.473c-1-1.042-2.775-1.316-4.125-1.488c-1.6-0.203-2.803,0.48-4.059,1.18
		c0.658-4.938-3.273-9.039-8.424-9.344c-2.117-0.125-4.063,0.854-5.477,2.341c-0.67-0.678-1.473-1.284-2.352-1.844
		c-3.406-2.168-7.164-1.672-10.713-0.143c-2.945,1.269-5.303,3.984-5.57,7.27c-0.033,0.409-0.039,0.876-0.016,1.368
		c-1.342-0.265-2.787-0.291-3.738-0.366c-3.188-0.251-5.555,4.323-5.445,6.958c0.141,3.384,5.019,4.845,7.584,5.54
		c2.484,0.674,5.092,0.846,7.617,1.313c2.779,0.514,5.637,0.829,8.459,0.933c5.773,0.212,11.459-0.632,17.182-1.229
		c3.625-0.377,7.777-1.203,9.967-4.396C456.516,189.078,455.891,185.529,453.92,183.473z"/>
	<path style="fill:#C12B36;" d="M44.199,367.91v-37c0,0,225.5-27,351-195.5l-7.5-6l63-57l-29.5,85l-8.914-8.265
		C412.285,149.145,280.199,335.91,44.199,367.91z"/>
	<g>
		<g>
			<path style="fill:#FCC670;" d="M364.279,443.418c0-5.891-13.598-10.666-30.371-10.666c-16.775,0-30.373,4.775-30.373,10.666
				c0,1.135,0,5.373,0,6.508c0,5.892,13.598,10.667,30.373,10.667c16.773,0,30.371-4.775,30.371-10.667
				C364.279,448.791,364.279,444.553,364.279,443.418z"/>
			<path style="fill:#D17F35;" d="M364.279,443.418c0,5.892-13.598,10.667-30.371,10.667c-16.775,0-30.373-4.775-30.373-10.667
				c0-5.891,13.598-10.666,30.373-10.666C350.682,432.752,364.279,437.527,364.279,443.418z"/>
			<path style="fill:#FCC670;" d="M333.908,452.085c-17.58,0-28.373-5.048-28.373-8.667c0-3.618,10.793-8.666,28.373-8.666
				c17.578,0,28.371,5.048,28.371,8.666C362.279,447.037,351.486,452.085,333.908,452.085z"/>
		</g>
		<g>
			<path style="fill:#FCC670;" d="M364.279,434.98c0-5.891-13.598-10.666-30.371-10.666c-16.775,0-30.373,4.775-30.373,10.666
				c0,1.135,0,5.373,0,6.508c0,5.892,13.598,10.667,30.373,10.667c16.773,0,30.371-4.775,30.371-10.667
				C364.279,440.353,364.279,436.115,364.279,434.98z"/>
			<path style="fill:#D17F35;" d="M364.279,434.98c0,5.892-13.598,10.667-30.371,10.667c-16.775,0-30.373-4.775-30.373-10.667
				c0-5.891,13.598-10.666,30.373-10.666C350.682,424.315,364.279,429.09,364.279,434.98z"/>
			<path style="fill:#FCC670;" d="M333.908,443.647c-17.58,0-28.373-5.048-28.373-8.667c0-3.618,10.793-8.666,28.373-8.666
				c17.578,0,28.371,5.048,28.371,8.666C362.279,438.6,351.486,443.647,333.908,443.647z"/>
		</g>
		<g>
			<path style="fill:#FCC670;" d="M364.279,426.543c0-5.891-13.598-10.666-30.371-10.666c-16.775,0-30.373,4.775-30.373,10.666
				c0,1.135,0,5.373,0,6.508c0,5.892,13.598,10.667,30.373,10.667c16.773,0,30.371-4.775,30.371-10.667
				C364.279,431.916,364.279,427.678,364.279,426.543z"/>
			<path style="fill:#D17F35;" d="M364.279,426.543c0,5.892-13.598,10.667-30.371,10.667c-16.775,0-30.373-4.775-30.373-10.667
				c0-5.891,13.598-10.666,30.373-10.666C350.682,415.877,364.279,420.652,364.279,426.543z"/>
			<path style="fill:#FCC670;" d="M333.908,435.21c-17.58,0-28.373-5.048-28.373-8.667c0-3.618,10.793-8.666,28.373-8.666
				c17.578,0,28.371,5.048,28.371,8.666C362.279,430.162,351.486,435.21,333.908,435.21z"/>
		</g>
		<g>
			<path style="fill:#FCC670;" d="M364.279,418.105c0-5.891-13.598-10.666-30.371-10.666c-16.775,0-30.373,4.775-30.373,10.666
				c0,1.135,0,5.373,0,6.508c0,5.892,13.598,10.667,30.373,10.667c16.773,0,30.371-4.775,30.371-10.667
				C364.279,423.478,364.279,419.24,364.279,418.105z"/>
			<path style="fill:#D17F35;" d="M364.279,418.105c0,5.892-13.598,10.667-30.371,10.667c-16.775,0-30.373-4.775-30.373-10.667
				c0-5.891,13.598-10.666,30.373-10.666C350.682,407.44,364.279,412.215,364.279,418.105z"/>
			<path style="fill:#FCC670;" d="M333.908,426.772c-17.58,0-28.373-5.048-28.373-8.667c0-3.618,10.793-8.666,28.373-8.666
				c17.578,0,28.371,5.048,28.371,8.666C362.279,421.725,351.486,426.772,333.908,426.772z"/>
		</g>
		<g>
			<path style="fill:#FCC670;" d="M364.279,409.668c0-5.891-13.598-10.666-30.371-10.666c-16.775,0-30.373,4.775-30.373,10.666
				c0,1.135,0,5.373,0,6.508c0,5.892,13.598,10.667,30.373,10.667c16.773,0,30.371-4.775,30.371-10.667
				C364.279,415.041,364.279,410.803,364.279,409.668z"/>
			<path style="fill:#D17F35;" d="M364.279,409.668c0,5.892-13.598,10.667-30.371,10.667c-16.775,0-30.373-4.775-30.373-10.667
				c0-5.891,13.598-10.666,30.373-10.666C350.682,399.002,364.279,403.777,364.279,409.668z"/>
			<path style="fill:#FCC670;" d="M333.908,418.335c-17.58,0-28.373-5.048-28.373-8.667c0-3.618,10.793-8.666,28.373-8.666
				c17.578,0,28.371,5.048,28.371,8.666C362.279,413.287,351.486,418.335,333.908,418.335z"/>
		</g>
		<g>
			<path style="fill:#FCC670;" d="M364.279,401.23c0-5.891-13.598-10.666-30.371-10.666c-16.775,0-30.373,4.775-30.373,10.666
				c0,1.135,0,5.373,0,6.508c0,5.892,13.598,10.667,30.373,10.667c16.773,0,30.371-4.775,30.371-10.667
				C364.279,406.603,364.279,402.365,364.279,401.23z"/>
			<path style="fill:#D17F35;" d="M364.279,401.23c0,5.892-13.598,10.667-30.371,10.667c-16.775,0-30.373-4.775-30.373-10.667
				c0-5.891,13.598-10.666,30.373-10.666C350.682,390.565,364.279,395.34,364.279,401.23z"/>
			<path style="fill:#FCC670;" d="M333.908,409.897c-17.58,0-28.373-5.048-28.373-8.667c0-3.618,10.793-8.666,28.373-8.666
				c17.578,0,28.371,5.048,28.371,8.666C362.279,404.85,351.486,409.897,333.908,409.897z"/>
		</g>
		<g>
			<path style="fill:#FCC670;" d="M364.279,392.793c0-5.891-13.598-10.666-30.371-10.666c-16.775,0-30.373,4.775-30.373,10.666
				c0,1.135,0,5.373,0,6.508c0,5.892,13.598,10.667,30.373,10.667c16.773,0,30.371-4.775,30.371-10.667
				C364.279,398.166,364.279,393.928,364.279,392.793z"/>
			<path style="fill:#D17F35;" d="M364.279,392.793c0,5.892-13.598,10.667-30.371,10.667c-16.775,0-30.373-4.775-30.373-10.667
				c0-5.891,13.598-10.666,30.373-10.666C350.682,382.127,364.279,386.902,364.279,392.793z"/>
			<path style="fill:#FCC670;" d="M333.908,401.46c-17.58,0-28.373-5.048-28.373-8.667c0-3.618,10.793-8.666,28.373-8.666
				c17.578,0,28.371,5.048,28.371,8.666C362.279,396.412,351.486,401.46,333.908,401.46z"/>
		</g>
		<g>
			<path style="fill:#FCC670;" d="M364.279,384.355c0-5.891-13.598-10.666-30.371-10.666c-16.775,0-30.373,4.775-30.373,10.666
				c0,1.135,0,5.373,0,6.508c0,5.892,13.598,10.667,30.373,10.667c16.773,0,30.371-4.775,30.371-10.667
				C364.279,389.728,364.279,385.49,364.279,384.355z"/>
			<path style="fill:#D17F35;" d="M364.279,384.355c0,5.892-13.598,10.667-30.371,10.667c-16.775,0-30.373-4.775-30.373-10.667
				c0-5.891,13.598-10.666,30.373-10.666C350.682,373.69,364.279,378.465,364.279,384.355z"/>
			<path style="fill:#FCC670;" d="M333.908,393.022c-17.58,0-28.373-5.048-28.373-8.667c0-3.618,10.793-8.666,28.373-8.666
				c17.578,0,28.371,5.048,28.371,8.666C362.279,387.975,351.486,393.022,333.908,393.022z"/>
		</g>
		<g>
			<path style="fill:#FCC670;" d="M364.279,375.918c0-5.891-13.598-10.666-30.371-10.666c-16.775,0-30.373,4.775-30.373,10.666
				c0,1.135,0,5.373,0,6.508c0,5.892,13.598,10.667,30.373,10.667c16.773,0,30.371-4.775,30.371-10.667
				C364.279,381.291,364.279,377.053,364.279,375.918z"/>
			<path style="fill:#D17F35;" d="M364.279,375.918c0,5.892-13.598,10.667-30.371,10.667c-16.775,0-30.373-4.775-30.373-10.667
				c0-5.891,13.598-10.666,30.373-10.666C350.682,365.252,364.279,370.027,364.279,375.918z"/>
			<path style="fill:#FCC670;" d="M333.908,384.585c-17.58,0-28.373-5.048-28.373-8.667c0-3.618,10.793-8.666,28.373-8.666
				c17.578,0,28.371,5.048,28.371,8.666C362.279,379.537,351.486,384.585,333.908,384.585z"/>
		</g>
		<g>
			<path style="fill:#FCC670;" d="M364.279,367.48c0-5.891-13.598-10.666-30.371-10.666c-16.775,0-30.373,4.775-30.373,10.666
				c0,1.135,0,5.373,0,6.508c0,5.892,13.598,10.667,30.373,10.667c16.773,0,30.371-4.775,30.371-10.667
				C364.279,372.853,364.279,368.615,364.279,367.48z"/>
			<path style="fill:#D17F35;" d="M364.279,367.48c0,5.892-13.598,10.667-30.371,10.667c-16.775,0-30.373-4.775-30.373-10.667
				c0-5.891,13.598-10.666,30.373-10.666C350.682,356.815,364.279,361.59,364.279,367.48z"/>
			<path style="fill:#FCC670;" d="M333.908,376.147c-17.58,0-28.373-5.048-28.373-8.667c0-3.618,10.793-8.666,28.373-8.666
				c17.578,0,28.371,5.048,28.371,8.666C362.279,371.1,351.486,376.147,333.908,376.147z"/>
		</g>
		<g>
			<path style="fill:#FCC670;" d="M364.279,359.043c0-5.891-13.598-10.666-30.371-10.666c-16.775,0-30.373,4.775-30.373,10.666
				c0,1.135,0,5.373,0,6.508c0,5.892,13.598,10.667,30.373,10.667c16.773,0,30.371-4.775,30.371-10.667
				C364.279,364.416,364.279,360.178,364.279,359.043z"/>
			<path style="fill:#D17F35;" d="M364.279,359.043c0,5.892-13.598,10.667-30.371,10.667c-16.775,0-30.373-4.775-30.373-10.667
				c0-5.891,13.598-10.666,30.373-10.666C350.682,348.377,364.279,353.152,364.279,359.043z"/>
			<path style="fill:#FCC670;" d="M333.908,367.71c-17.58,0-28.373-5.048-28.373-8.667c0-3.618,10.793-8.666,28.373-8.666
				c17.578,0,28.371,5.048,28.371,8.666C362.279,362.662,351.486,367.71,333.908,367.71z"/>
		</g>
		<g>
			<path style="fill:#FCC670;" d="M364.279,350.605c0-5.891-13.598-10.666-30.371-10.666c-16.775,0-30.373,4.775-30.373,10.666
				c0,1.135,0,5.373,0,6.508c0,5.892,13.598,10.667,30.373,10.667c16.773,0,30.371-4.775,30.371-10.667
				C364.279,355.978,364.279,351.74,364.279,350.605z"/>
			<path style="fill:#D17F35;" d="M364.279,350.605c0,5.892-13.598,10.667-30.371,10.667c-16.775,0-30.373-4.775-30.373-10.667
				c0-5.891,13.598-10.666,30.373-10.666C350.682,339.94,364.279,344.715,364.279,350.605z"/>
			<path style="fill:#FCC670;" d="M333.908,359.272c-17.58,0-28.373-5.048-28.373-8.667c0-3.618,10.793-8.666,28.373-8.666
				c17.578,0,28.371,5.048,28.371,8.666C362.279,354.225,351.486,359.272,333.908,359.272z"/>
		</g>
		<g>
			<path style="fill:#FCC670;" d="M364.279,342.168c0-5.891-13.598-10.666-30.371-10.666c-16.775,0-30.373,4.775-30.373,10.666
				c0,1.135,0,5.373,0,6.508c0,5.892,13.598,10.667,30.373,10.667c16.773,0,30.371-4.775,30.371-10.667
				C364.279,347.541,364.279,343.303,364.279,342.168z"/>
			<path style="fill:#D17F35;" d="M364.279,342.168c0,5.892-13.598,10.667-30.371,10.667c-16.775,0-30.373-4.775-30.373-10.667
				c0-5.891,13.598-10.666,30.373-10.666C350.682,331.502,364.279,336.277,364.279,342.168z"/>
			<path style="fill:#FCC670;" d="M333.908,350.835c-17.58,0-28.373-5.048-28.373-8.667c0-3.618,10.793-8.666,28.373-8.666
				c17.578,0,28.371,5.048,28.371,8.666C362.279,345.787,351.486,350.835,333.908,350.835z"/>
		</g>
		<g>
			<path style="fill:#FCC670;" d="M364.279,333.73c0-5.891-13.598-10.666-30.371-10.666c-16.775,0-30.373,4.775-30.373,10.666
				c0,1.135,0,5.373,0,6.508c0,5.892,13.598,10.667,30.373,10.667c16.773,0,30.371-4.775,30.371-10.667
				C364.279,339.103,364.279,334.865,364.279,333.73z"/>
			<path style="fill:#D17F35;" d="M364.279,333.73c0,5.892-13.598,10.667-30.371,10.667c-16.775,0-30.373-4.775-30.373-10.667
				c0-5.891,13.598-10.666,30.373-10.666C350.682,323.065,364.279,327.84,364.279,333.73z"/>
			<path style="fill:#FCC670;" d="M333.908,342.397c-17.58,0-28.373-5.048-28.373-8.667c0-3.618,10.793-8.666,28.373-8.666
				c17.578,0,28.371,5.048,28.371,8.666C362.279,337.35,351.486,342.397,333.908,342.397z"/>
		</g>
		<g>
			<path style="fill:#FCC670;" d="M364.279,325.293c0-5.891-13.598-10.666-30.371-10.666c-16.775,0-30.373,4.775-30.373,10.666
				c0,1.135,0,5.373,0,6.508c0,5.892,13.598,10.667,30.373,10.667c16.773,0,30.371-4.775,30.371-10.667
				C364.279,330.666,364.279,326.428,364.279,325.293z"/>
			<path style="fill:#D17F35;" d="M364.279,325.293c0,5.892-13.598,10.667-30.371,10.667c-16.775,0-30.373-4.775-30.373-10.667
				c0-5.891,13.598-10.666,30.373-10.666C350.682,314.627,364.279,319.402,364.279,325.293z"/>
			<path style="fill:#FCC670;" d="M333.908,333.96c-17.58,0-28.373-5.048-28.373-8.667c0-3.618,10.793-8.666,28.373-8.666
				c17.578,0,28.371,5.048,28.371,8.666C362.279,328.912,351.486,333.96,333.908,333.96z"/>
		</g>
		<g>
			<path style="fill:#FCC670;" d="M364.279,316.855c0-5.891-13.598-10.666-30.371-10.666c-16.775,0-30.373,4.775-30.373,10.666
				c0,1.135,0,5.373,0,6.508c0,5.892,13.598,10.667,30.373,10.667c16.773,0,30.371-4.775,30.371-10.667
				C364.279,322.228,364.279,317.99,364.279,316.855z"/>
			<path style="fill:#D17F35;" d="M364.279,316.855c0,5.892-13.598,10.667-30.371,10.667c-16.775,0-30.373-4.775-30.373-10.667
				c0-5.891,13.598-10.666,30.373-10.666C350.682,306.19,364.279,310.965,364.279,316.855z"/>
			<path style="fill:#FCC670;" d="M333.908,325.522c-17.58,0-28.373-5.048-28.373-8.667c0-3.618,10.793-8.666,28.373-8.666
				c17.578,0,28.371,5.048,28.371,8.666C362.279,320.475,351.486,325.522,333.908,325.522z"/>
		</g>
		<g>
			<path style="fill:#FCC670;" d="M364.279,308.418c0-5.891-13.598-10.666-30.371-10.666c-16.775,0-30.373,4.775-30.373,10.666
				c0,1.135,0,5.373,0,6.508c0,5.892,13.598,10.667,30.373,10.667c16.773,0,30.371-4.775,30.371-10.667
				C364.279,313.791,364.279,309.553,364.279,308.418z"/>
			<path style="fill:#D17F35;" d="M364.279,308.418c0,5.892-13.598,10.667-30.371,10.667c-16.775,0-30.373-4.775-30.373-10.667
				c0-5.891,13.598-10.666,30.373-10.666C350.682,297.752,364.279,302.527,364.279,308.418z"/>
			<path style="fill:#FCC670;" d="M333.908,317.085c-17.58,0-28.373-5.048-28.373-8.667c0-3.618,10.793-8.666,28.373-8.666
				c17.578,0,28.371,5.048,28.371,8.666C362.279,312.037,351.486,317.085,333.908,317.085z"/>
		</g>
		<g>
			<path style="fill:#FCC670;" d="M364.279,299.98c0-5.891-13.598-10.666-30.371-10.666c-16.775,0-30.373,4.775-30.373,10.666
				c0,1.135,0,5.373,0,6.508c0,5.892,13.598,10.667,30.373,10.667c16.773,0,30.371-4.775,30.371-10.667
				C364.279,305.353,364.279,301.115,364.279,299.98z"/>
			<path style="fill:#D17F35;" d="M364.279,299.98c0,5.892-13.598,10.667-30.371,10.667c-16.775,0-30.373-4.775-30.373-10.667
				c0-5.891,13.598-10.666,30.373-10.666C350.682,289.315,364.279,294.09,364.279,299.98z"/>
			<path style="fill:#FCC670;" d="M333.908,308.647c-17.58,0-28.373-5.048-28.373-8.667c0-3.618,10.793-8.666,28.373-8.666
				c17.578,0,28.371,5.048,28.371,8.666C362.279,303.6,351.486,308.647,333.908,308.647z"/>
		</g>
	</g>
	<g>
		<g>
			<path style="fill:#FCC670;" d="M281.779,443.418c0-5.891-13.598-10.666-30.371-10.666c-16.775,0-30.374,4.775-30.374,10.666
				c0,1.135,0,5.373,0,6.508c0,5.892,13.599,10.667,30.374,10.667c16.773,0,30.371-4.775,30.371-10.667
				C281.779,448.791,281.779,444.553,281.779,443.418z"/>
			<path style="fill:#D17F35;" d="M281.779,443.418c0,5.892-13.598,10.667-30.371,10.667c-16.775,0-30.374-4.775-30.374-10.667
				c0-5.891,13.599-10.666,30.374-10.666C268.182,432.752,281.779,437.527,281.779,443.418z"/>
			<path style="fill:#FCC670;" d="M251.408,452.085c-17.58,0-28.374-5.048-28.374-8.667c0-3.618,10.794-8.666,28.374-8.666
				c17.578,0,28.371,5.048,28.371,8.666C279.779,447.037,268.986,452.085,251.408,452.085z"/>
		</g>
		<g>
			<path style="fill:#FCC670;" d="M281.779,434.98c0-5.891-13.598-10.666-30.371-10.666c-16.775,0-30.374,4.775-30.374,10.666
				c0,1.135,0,5.373,0,6.508c0,5.892,13.599,10.667,30.374,10.667c16.773,0,30.371-4.775,30.371-10.667
				C281.779,440.353,281.779,436.115,281.779,434.98z"/>
			<path style="fill:#D17F35;" d="M281.779,434.98c0,5.892-13.598,10.667-30.371,10.667c-16.775,0-30.374-4.775-30.374-10.667
				c0-5.891,13.599-10.666,30.374-10.666C268.182,424.315,281.779,429.09,281.779,434.98z"/>
			<path style="fill:#FCC670;" d="M251.408,443.647c-17.58,0-28.374-5.048-28.374-8.667c0-3.618,10.794-8.666,28.374-8.666
				c17.578,0,28.371,5.048,28.371,8.666C279.779,438.6,268.986,443.647,251.408,443.647z"/>
		</g>
		<g>
			<path style="fill:#FCC670;" d="M281.779,426.543c0-5.891-13.598-10.666-30.371-10.666c-16.775,0-30.374,4.775-30.374,10.666
				c0,1.135,0,5.373,0,6.508c0,5.892,13.599,10.667,30.374,10.667c16.773,0,30.371-4.775,30.371-10.667
				C281.779,431.916,281.779,427.678,281.779,426.543z"/>
			<path style="fill:#D17F35;" d="M281.779,426.543c0,5.892-13.598,10.667-30.371,10.667c-16.775,0-30.374-4.775-30.374-10.667
				c0-5.891,13.599-10.666,30.374-10.666C268.182,415.877,281.779,420.652,281.779,426.543z"/>
			<path style="fill:#FCC670;" d="M251.408,435.21c-17.58,0-28.374-5.048-28.374-8.667c0-3.618,10.794-8.666,28.374-8.666
				c17.578,0,28.371,5.048,28.371,8.666C279.779,430.162,268.986,435.21,251.408,435.21z"/>
		</g>
		<g>
			<path style="fill:#FCC670;" d="M281.779,418.105c0-5.891-13.598-10.666-30.371-10.666c-16.775,0-30.374,4.775-30.374,10.666
				c0,1.135,0,5.373,0,6.508c0,5.892,13.599,10.667,30.374,10.667c16.773,0,30.371-4.775,30.371-10.667
				C281.779,423.478,281.779,419.24,281.779,418.105z"/>
			<path style="fill:#D17F35;" d="M281.779,418.105c0,5.892-13.598,10.667-30.371,10.667c-16.775,0-30.374-4.775-30.374-10.667
				c0-5.891,13.599-10.666,30.374-10.666C268.182,407.44,281.779,412.215,281.779,418.105z"/>
			<path style="fill:#FCC670;" d="M251.408,426.772c-17.58,0-28.374-5.048-28.374-8.667c0-3.618,10.794-8.666,28.374-8.666
				c17.578,0,28.371,5.048,28.371,8.666C279.779,421.725,268.986,426.772,251.408,426.772z"/>
		</g>
		<g>
			<path style="fill:#FCC670;" d="M281.779,409.668c0-5.891-13.598-10.666-30.371-10.666c-16.775,0-30.374,4.775-30.374,10.666
				c0,1.135,0,5.373,0,6.508c0,5.892,13.599,10.667,30.374,10.667c16.773,0,30.371-4.775,30.371-10.667
				C281.779,415.041,281.779,410.803,281.779,409.668z"/>
			<path style="fill:#D17F35;" d="M281.779,409.668c0,5.892-13.598,10.667-30.371,10.667c-16.775,0-30.374-4.775-30.374-10.667
				c0-5.891,13.599-10.666,30.374-10.666C268.182,399.002,281.779,403.777,281.779,409.668z"/>
			<path style="fill:#FCC670;" d="M251.408,418.335c-17.58,0-28.374-5.048-28.374-8.667c0-3.618,10.794-8.666,28.374-8.666
				c17.578,0,28.371,5.048,28.371,8.666C279.779,413.287,268.986,418.335,251.408,418.335z"/>
		</g>
		<g>
			<path style="fill:#FCC670;" d="M281.779,401.23c0-5.891-13.598-10.666-30.371-10.666c-16.775,0-30.374,4.775-30.374,10.666
				c0,1.135,0,5.373,0,6.508c0,5.892,13.599,10.667,30.374,10.667c16.773,0,30.371-4.775,30.371-10.667
				C281.779,406.603,281.779,402.365,281.779,401.23z"/>
			<path style="fill:#D17F35;" d="M281.779,401.23c0,5.892-13.598,10.667-30.371,10.667c-16.775,0-30.374-4.775-30.374-10.667
				c0-5.891,13.599-10.666,30.374-10.666C268.182,390.565,281.779,395.34,281.779,401.23z"/>
			<path style="fill:#FCC670;" d="M251.408,409.897c-17.58,0-28.374-5.048-28.374-8.667c0-3.618,10.794-8.666,28.374-8.666
				c17.578,0,28.371,5.048,28.371,8.666C279.779,404.85,268.986,409.897,251.408,409.897z"/>
		</g>
		<g>
			<path style="fill:#FCC670;" d="M281.779,392.793c0-5.891-13.598-10.666-30.371-10.666c-16.775,0-30.374,4.775-30.374,10.666
				c0,1.135,0,5.373,0,6.508c0,5.892,13.599,10.667,30.374,10.667c16.773,0,30.371-4.775,30.371-10.667
				C281.779,398.166,281.779,393.928,281.779,392.793z"/>
			<path style="fill:#D17F35;" d="M281.779,392.793c0,5.892-13.598,10.667-30.371,10.667c-16.775,0-30.374-4.775-30.374-10.667
				c0-5.891,13.599-10.666,30.374-10.666C268.182,382.127,281.779,386.902,281.779,392.793z"/>
			<path style="fill:#FCC670;" d="M251.408,401.46c-17.58,0-28.374-5.048-28.374-8.667c0-3.618,10.794-8.666,28.374-8.666
				c17.578,0,28.371,5.048,28.371,8.666C279.779,396.412,268.986,401.46,251.408,401.46z"/>
		</g>
		<g>
			<path style="fill:#FCC670;" d="M281.779,384.355c0-5.891-13.598-10.666-30.371-10.666c-16.775,0-30.374,4.775-30.374,10.666
				c0,1.135,0,5.373,0,6.508c0,5.892,13.599,10.667,30.374,10.667c16.773,0,30.371-4.775,30.371-10.667
				C281.779,389.728,281.779,385.49,281.779,384.355z"/>
			<path style="fill:#D17F35;" d="M281.779,384.355c0,5.892-13.598,10.667-30.371,10.667c-16.775,0-30.374-4.775-30.374-10.667
				c0-5.891,13.599-10.666,30.374-10.666C268.182,373.69,281.779,378.465,281.779,384.355z"/>
			<path style="fill:#FCC670;" d="M251.408,393.022c-17.58,0-28.374-5.048-28.374-8.667c0-3.618,10.794-8.666,28.374-8.666
				c17.578,0,28.371,5.048,28.371,8.666C279.779,387.975,268.986,393.022,251.408,393.022z"/>
		</g>
		<g>
			<path style="fill:#FCC670;" d="M281.779,375.918c0-5.891-13.598-10.666-30.371-10.666c-16.775,0-30.374,4.775-30.374,10.666
				c0,1.135,0,5.373,0,6.508c0,5.892,13.599,10.667,30.374,10.667c16.773,0,30.371-4.775,30.371-10.667
				C281.779,381.291,281.779,377.053,281.779,375.918z"/>
			<path style="fill:#D17F35;" d="M281.779,375.918c0,5.892-13.598,10.667-30.371,10.667c-16.775,0-30.374-4.775-30.374-10.667
				c0-5.891,13.599-10.666,30.374-10.666C268.182,365.252,281.779,370.027,281.779,375.918z"/>
			<path style="fill:#FCC670;" d="M251.408,384.585c-17.58,0-28.374-5.048-28.374-8.667c0-3.618,10.794-8.666,28.374-8.666
				c17.578,0,28.371,5.048,28.371,8.666C279.779,379.537,268.986,384.585,251.408,384.585z"/>
		</g>
		<g>
			<path style="fill:#FCC670;" d="M281.779,367.48c0-5.891-13.598-10.666-30.371-10.666c-16.775,0-30.374,4.775-30.374,10.666
				c0,1.135,0,5.373,0,6.508c0,5.892,13.599,10.667,30.374,10.667c16.773,0,30.371-4.775,30.371-10.667
				C281.779,372.853,281.779,368.615,281.779,367.48z"/>
			<path style="fill:#D17F35;" d="M281.779,367.48c0,5.892-13.598,10.667-30.371,10.667c-16.775,0-30.374-4.775-30.374-10.667
				c0-5.891,13.599-10.666,30.374-10.666C268.182,356.815,281.779,361.59,281.779,367.48z"/>
			<path style="fill:#FCC670;" d="M251.408,376.147c-17.58,0-28.374-5.048-28.374-8.667c0-3.618,10.794-8.666,28.374-8.666
				c17.578,0,28.371,5.048,28.371,8.666C279.779,371.1,268.986,376.147,251.408,376.147z"/>
		</g>
		<g>
			<path style="fill:#FCC670;" d="M281.779,359.043c0-5.891-13.598-10.666-30.371-10.666c-16.775,0-30.374,4.775-30.374,10.666
				c0,1.135,0,5.373,0,6.508c0,5.892,13.599,10.667,30.374,10.667c16.773,0,30.371-4.775,30.371-10.667
				C281.779,364.416,281.779,360.178,281.779,359.043z"/>
			<path style="fill:#D17F35;" d="M281.779,359.043c0,5.892-13.598,10.667-30.371,10.667c-16.775,0-30.374-4.775-30.374-10.667
				c0-5.891,13.599-10.666,30.374-10.666C268.182,348.377,281.779,353.152,281.779,359.043z"/>
			<path style="fill:#FCC670;" d="M251.408,367.71c-17.58,0-28.374-5.048-28.374-8.667c0-3.618,10.794-8.666,28.374-8.666
				c17.578,0,28.371,5.048,28.371,8.666C279.779,362.662,268.986,367.71,251.408,367.71z"/>
		</g>
		<g>
			<path style="fill:#FCC670;" d="M281.779,350.605c0-5.891-13.598-10.666-30.371-10.666c-16.775,0-30.374,4.775-30.374,10.666
				c0,1.135,0,5.373,0,6.508c0,5.892,13.599,10.667,30.374,10.667c16.773,0,30.371-4.775,30.371-10.667
				C281.779,355.978,281.779,351.74,281.779,350.605z"/>
			<path style="fill:#D17F35;" d="M281.779,350.605c0,5.892-13.598,10.667-30.371,10.667c-16.775,0-30.374-4.775-30.374-10.667
				c0-5.891,13.599-10.666,30.374-10.666C268.182,339.94,281.779,344.715,281.779,350.605z"/>
			<path style="fill:#FCC670;" d="M251.408,359.272c-17.58,0-28.374-5.048-28.374-8.667c0-3.618,10.794-8.666,28.374-8.666
				c17.578,0,28.371,5.048,28.371,8.666C279.779,354.225,268.986,359.272,251.408,359.272z"/>
		</g>
	</g>
	<g>
		<g>
			<path style="fill:#FCC670;" d="M199.279,443.418c0-5.891-13.598-10.666-30.371-10.666c-16.774,0-30.373,4.775-30.373,10.666
				c0,1.135,0,5.373,0,6.508c0,5.892,13.599,10.667,30.373,10.667c16.774,0,30.371-4.775,30.371-10.667
				C199.279,448.791,199.279,444.553,199.279,443.418z"/>
			<path style="fill:#D17F35;" d="M199.279,443.418c0,5.892-13.598,10.667-30.371,10.667c-16.774,0-30.373-4.775-30.373-10.667
				c0-5.891,13.599-10.666,30.373-10.666C185.681,432.752,199.279,437.527,199.279,443.418z"/>
			<path style="fill:#FCC670;" d="M168.908,452.085c-17.579,0-28.373-5.048-28.373-8.667c0-3.618,10.794-8.666,28.373-8.666
				c17.578,0,28.371,5.048,28.371,8.666C197.279,447.037,186.486,452.085,168.908,452.085z"/>
		</g>
		<g>
			<path style="fill:#FCC670;" d="M199.279,434.98c0-5.891-13.598-10.666-30.371-10.666c-16.774,0-30.373,4.775-30.373,10.666
				c0,1.135,0,5.373,0,6.508c0,5.892,13.599,10.667,30.373,10.667c16.774,0,30.371-4.775,30.371-10.667
				C199.279,440.353,199.279,436.115,199.279,434.98z"/>
			<path style="fill:#D17F35;" d="M199.279,434.98c0,5.892-13.598,10.667-30.371,10.667c-16.774,0-30.373-4.775-30.373-10.667
				c0-5.891,13.599-10.666,30.373-10.666C185.681,424.315,199.279,429.09,199.279,434.98z"/>
			<path style="fill:#FCC670;" d="M168.908,443.647c-17.579,0-28.373-5.048-28.373-8.667c0-3.618,10.794-8.666,28.373-8.666
				c17.578,0,28.371,5.048,28.371,8.666C197.279,438.6,186.486,443.647,168.908,443.647z"/>
		</g>
		<g>
			<path style="fill:#FCC670;" d="M199.279,426.543c0-5.891-13.598-10.666-30.371-10.666c-16.774,0-30.373,4.775-30.373,10.666
				c0,1.135,0,5.373,0,6.508c0,5.892,13.599,10.667,30.373,10.667c16.774,0,30.371-4.775,30.371-10.667
				C199.279,431.916,199.279,427.678,199.279,426.543z"/>
			<path style="fill:#D17F35;" d="M199.279,426.543c0,5.892-13.598,10.667-30.371,10.667c-16.774,0-30.373-4.775-30.373-10.667
				c0-5.891,13.599-10.666,30.373-10.666C185.681,415.877,199.279,420.652,199.279,426.543z"/>
			<path style="fill:#FCC670;" d="M168.908,435.21c-17.579,0-28.373-5.048-28.373-8.667c0-3.618,10.794-8.666,28.373-8.666
				c17.578,0,28.371,5.048,28.371,8.666C197.279,430.162,186.486,435.21,168.908,435.21z"/>
		</g>
		<g>
			<path style="fill:#FCC670;" d="M199.279,418.105c0-5.891-13.598-10.666-30.371-10.666c-16.774,0-30.373,4.775-30.373,10.666
				c0,1.135,0,5.373,0,6.508c0,5.892,13.599,10.667,30.373,10.667c16.774,0,30.371-4.775,30.371-10.667
				C199.279,423.478,199.279,419.24,199.279,418.105z"/>
			<path style="fill:#D17F35;" d="M199.279,418.105c0,5.892-13.598,10.667-30.371,10.667c-16.774,0-30.373-4.775-30.373-10.667
				c0-5.891,13.599-10.666,30.373-10.666C185.681,407.44,199.279,412.215,199.279,418.105z"/>
			<path style="fill:#FCC670;" d="M168.908,426.772c-17.579,0-28.373-5.048-28.373-8.667c0-3.618,10.794-8.666,28.373-8.666
				c17.578,0,28.371,5.048,28.371,8.666C197.279,421.725,186.486,426.772,168.908,426.772z"/>
		</g>
		<g>
			<path style="fill:#FCC670;" d="M199.279,409.668c0-5.891-13.598-10.666-30.371-10.666c-16.774,0-30.373,4.775-30.373,10.666
				c0,1.135,0,5.373,0,6.508c0,5.892,13.599,10.667,30.373,10.667c16.774,0,30.371-4.775,30.371-10.667
				C199.279,415.041,199.279,410.803,199.279,409.668z"/>
			<path style="fill:#D17F35;" d="M199.279,409.668c0,5.892-13.598,10.667-30.371,10.667c-16.774,0-30.373-4.775-30.373-10.667
				c0-5.891,13.599-10.666,30.373-10.666C185.681,399.002,199.279,403.777,199.279,409.668z"/>
			<path style="fill:#FCC670;" d="M168.908,418.335c-17.579,0-28.373-5.048-28.373-8.667c0-3.618,10.794-8.666,28.373-8.666
				c17.578,0,28.371,5.048,28.371,8.666C197.279,413.287,186.486,418.335,168.908,418.335z"/>
		</g>
		<g>
			<path style="fill:#FCC670;" d="M199.279,401.23c0-5.891-13.598-10.666-30.371-10.666c-16.774,0-30.373,4.775-30.373,10.666
				c0,1.135,0,5.373,0,6.508c0,5.892,13.599,10.667,30.373,10.667c16.774,0,30.371-4.775,30.371-10.667
				C199.279,406.603,199.279,402.365,199.279,401.23z"/>
			<path style="fill:#D17F35;" d="M199.279,401.23c0,5.892-13.598,10.667-30.371,10.667c-16.774,0-30.373-4.775-30.373-10.667
				c0-5.891,13.599-10.666,30.373-10.666C185.681,390.565,199.279,395.34,199.279,401.23z"/>
			<path style="fill:#FCC670;" d="M168.908,409.897c-17.579,0-28.373-5.048-28.373-8.667c0-3.618,10.794-8.666,28.373-8.666
				c17.578,0,28.371,5.048,28.371,8.666C197.279,404.85,186.486,409.897,168.908,409.897z"/>
		</g>
		<g>
			<path style="fill:#FCC670;" d="M199.279,392.793c0-5.891-13.598-10.666-30.371-10.666c-16.774,0-30.373,4.775-30.373,10.666
				c0,1.135,0,5.373,0,6.508c0,5.892,13.599,10.667,30.373,10.667c16.774,0,30.371-4.775,30.371-10.667
				C199.279,398.166,199.279,393.928,199.279,392.793z"/>
			<path style="fill:#D17F35;" d="M199.279,392.793c0,5.892-13.598,10.667-30.371,10.667c-16.774,0-30.373-4.775-30.373-10.667
				c0-5.891,13.599-10.666,30.373-10.666C185.681,382.127,199.279,386.902,199.279,392.793z"/>
			<path style="fill:#FCC670;" d="M168.908,401.46c-17.579,0-28.373-5.048-28.373-8.667c0-3.618,10.794-8.666,28.373-8.666
				c17.578,0,28.371,5.048,28.371,8.666C197.279,396.412,186.486,401.46,168.908,401.46z"/>
		</g>
		<g>
			<path style="fill:#FCC670;" d="M199.279,384.355c0-5.891-13.598-10.666-30.371-10.666c-16.774,0-30.373,4.775-30.373,10.666
				c0,1.135,0,5.373,0,6.508c0,5.892,13.599,10.667,30.373,10.667c16.774,0,30.371-4.775,30.371-10.667
				C199.279,389.728,199.279,385.49,199.279,384.355z"/>
			<path style="fill:#D17F35;" d="M199.279,384.355c0,5.892-13.598,10.667-30.371,10.667c-16.774,0-30.373-4.775-30.373-10.667
				c0-5.891,13.599-10.666,30.373-10.666C185.681,373.69,199.279,378.465,199.279,384.355z"/>
			<path style="fill:#FCC670;" d="M168.908,393.022c-17.579,0-28.373-5.048-28.373-8.667c0-3.618,10.794-8.666,28.373-8.666
				c17.578,0,28.371,5.048,28.371,8.666C197.279,387.975,186.486,393.022,168.908,393.022z"/>
		</g>
	</g>
	<g>
		<g>
			<path style="fill:#FCC670;" d="M116.779,443.418c0-5.891-13.598-10.666-30.371-10.666c-16.774,0-30.373,4.775-30.373,10.666
				c0,1.135,0,5.373,0,6.508c0,5.892,13.599,10.667,30.373,10.667c16.773,0,30.371-4.775,30.371-10.667
				C116.779,448.791,116.779,444.553,116.779,443.418z"/>
			<path style="fill:#D17F35;" d="M116.779,443.418c0,5.892-13.598,10.667-30.371,10.667c-16.774,0-30.373-4.775-30.373-10.667
				c0-5.891,13.599-10.666,30.373-10.666C103.181,432.752,116.779,437.527,116.779,443.418z"/>
			<path style="fill:#FCC670;" d="M86.408,452.085c-17.579,0-28.373-5.048-28.373-8.667c0-3.618,10.794-8.666,28.373-8.666
				c17.578,0,28.371,5.048,28.371,8.666C114.779,447.037,103.986,452.085,86.408,452.085z"/>
		</g>
		<g>
			<path style="fill:#FCC670;" d="M116.779,434.98c0-5.891-13.598-10.666-30.371-10.666c-16.774,0-30.373,4.775-30.373,10.666
				c0,1.135,0,5.373,0,6.508c0,5.892,13.599,10.667,30.373,10.667c16.773,0,30.371-4.775,30.371-10.667
				C116.779,440.353,116.779,436.115,116.779,434.98z"/>
			<path style="fill:#D17F35;" d="M116.779,434.98c0,5.892-13.598,10.667-30.371,10.667c-16.774,0-30.373-4.775-30.373-10.667
				c0-5.891,13.599-10.666,30.373-10.666C103.181,424.315,116.779,429.09,116.779,434.98z"/>
			<path style="fill:#FCC670;" d="M86.408,443.647c-17.579,0-28.373-5.048-28.373-8.667c0-3.618,10.794-8.666,28.373-8.666
				c17.578,0,28.371,5.048,28.371,8.666C114.779,438.6,103.986,443.647,86.408,443.647z"/>
		</g>
		<g>
			<path style="fill:#FCC670;" d="M116.779,426.543c0-5.891-13.598-10.666-30.371-10.666c-16.774,0-30.373,4.775-30.373,10.666
				c0,1.135,0,5.373,0,6.508c0,5.892,13.599,10.667,30.373,10.667c16.773,0,30.371-4.775,30.371-10.667
				C116.779,431.916,116.779,427.678,116.779,426.543z"/>
			<path style="fill:#D17F35;" d="M116.779,426.543c0,5.892-13.598,10.667-30.371,10.667c-16.774,0-30.373-4.775-30.373-10.667
				c0-5.891,13.599-10.666,30.373-10.666C103.181,415.877,116.779,420.652,116.779,426.543z"/>
			<path style="fill:#FCC670;" d="M86.408,435.21c-17.579,0-28.373-5.048-28.373-8.667c0-3.618,10.794-8.666,28.373-8.666
				c17.578,0,28.371,5.048,28.371,8.666C114.779,430.162,103.986,435.21,86.408,435.21z"/>
		</g>
		<g>
			<path style="fill:#FCC670;" d="M116.779,418.105c0-5.891-13.598-10.666-30.371-10.666c-16.774,0-30.373,4.775-30.373,10.666
				c0,1.135,0,5.373,0,6.508c0,5.892,13.599,10.667,30.373,10.667c16.773,0,30.371-4.775,30.371-10.667
				C116.779,423.478,116.779,419.24,116.779,418.105z"/>
			<path style="fill:#D17F35;" d="M116.779,418.105c0,5.892-13.598,10.667-30.371,10.667c-16.774,0-30.373-4.775-30.373-10.667
				c0-5.891,13.599-10.666,30.373-10.666C103.181,407.44,116.779,412.215,116.779,418.105z"/>
			<path style="fill:#FCC670;" d="M86.408,426.772c-17.579,0-28.373-5.048-28.373-8.667c0-3.618,10.794-8.666,28.373-8.666
				c17.578,0,28.371,5.048,28.371,8.666C114.779,421.725,103.986,426.772,86.408,426.772z"/>
		</g>
		<g>
			<path style="fill:#FCC670;" d="M116.779,409.668c0-5.891-13.598-10.666-30.371-10.666c-16.774,0-30.373,4.775-30.373,10.666
				c0,1.135,0,5.373,0,6.508c0,5.892,13.599,10.667,30.373,10.667c16.773,0,30.371-4.775,30.371-10.667
				C116.779,415.041,116.779,410.803,116.779,409.668z"/>
			<path style="fill:#D17F35;" d="M116.779,409.668c0,5.892-13.598,10.667-30.371,10.667c-16.774,0-30.373-4.775-30.373-10.667
				c0-5.891,13.599-10.666,30.373-10.666C103.181,399.002,116.779,403.777,116.779,409.668z"/>
			<path style="fill:#FCC670;" d="M86.408,418.335c-17.579,0-28.373-5.048-28.373-8.667c0-3.618,10.794-8.666,28.373-8.666
				c17.578,0,28.371,5.048,28.371,8.666C114.779,413.287,103.986,418.335,86.408,418.335z"/>
		</g>
		<g>
			<path style="fill:#FCC670;" d="M116.779,401.23c0-5.891-13.598-10.666-30.371-10.666c-16.774,0-30.373,4.775-30.373,10.666
				c0,1.135,0,5.373,0,6.508c0,5.892,13.599,10.667,30.373,10.667c16.773,0,30.371-4.775,30.371-10.667
				C116.779,406.603,116.779,402.365,116.779,401.23z"/>
			<path style="fill:#D17F35;" d="M116.779,401.23c0,5.892-13.598,10.667-30.371,10.667c-16.774,0-30.373-4.775-30.373-10.667
				c0-5.891,13.599-10.666,30.373-10.666C103.181,390.565,116.779,395.34,116.779,401.23z"/>
			<path style="fill:#FCC670;" d="M86.408,409.897c-17.579,0-28.373-5.048-28.373-8.667c0-3.618,10.794-8.666,28.373-8.666
				c17.578,0,28.371,5.048,28.371,8.666C114.779,404.85,103.986,409.897,86.408,409.897z"/>
		</g>
	</g>
	<g>
		<g>
			<path style="fill:#FCC670;" d="M446.779,443.418c0-5.891-13.598-10.666-30.371-10.666c-16.775,0-30.373,4.775-30.373,10.666
				c0,1.135,0,5.373,0,6.508c0,5.892,13.598,10.667,30.373,10.667c16.773,0,30.371-4.775,30.371-10.667
				C446.779,448.791,446.779,444.553,446.779,443.418z"/>
			<path style="fill:#D17F35;" d="M446.779,443.418c0,5.892-13.598,10.667-30.371,10.667c-16.775,0-30.373-4.775-30.373-10.667
				c0-5.891,13.598-10.666,30.373-10.666C433.182,432.752,446.779,437.527,446.779,443.418z"/>
			<path style="fill:#FCC670;" d="M416.408,452.085c-17.58,0-28.373-5.048-28.373-8.667c0-3.618,10.793-8.666,28.373-8.666
				c17.578,0,28.371,5.048,28.371,8.666C444.779,447.037,433.986,452.085,416.408,452.085z"/>
		</g>
		<g>
			<path style="fill:#FCC670;" d="M446.779,434.98c0-5.891-13.598-10.666-30.371-10.666c-16.775,0-30.373,4.775-30.373,10.666
				c0,1.135,0,5.373,0,6.508c0,5.892,13.598,10.667,30.373,10.667c16.773,0,30.371-4.775,30.371-10.667
				C446.779,440.353,446.779,436.115,446.779,434.98z"/>
			<path style="fill:#D17F35;" d="M446.779,434.98c0,5.892-13.598,10.667-30.371,10.667c-16.775,0-30.373-4.775-30.373-10.667
				c0-5.891,13.598-10.666,30.373-10.666C433.182,424.315,446.779,429.09,446.779,434.98z"/>
			<path style="fill:#FCC670;" d="M416.408,443.647c-17.58,0-28.373-5.048-28.373-8.667c0-3.618,10.793-8.666,28.373-8.666
				c17.578,0,28.371,5.048,28.371,8.666C444.779,438.6,433.986,443.647,416.408,443.647z"/>
		</g>
		<g>
			<path style="fill:#FCC670;" d="M446.779,426.543c0-5.891-13.598-10.666-30.371-10.666c-16.775,0-30.373,4.775-30.373,10.666
				c0,1.135,0,5.373,0,6.508c0,5.892,13.598,10.667,30.373,10.667c16.773,0,30.371-4.775,30.371-10.667
				C446.779,431.916,446.779,427.678,446.779,426.543z"/>
			<path style="fill:#D17F35;" d="M446.779,426.543c0,5.892-13.598,10.667-30.371,10.667c-16.775,0-30.373-4.775-30.373-10.667
				c0-5.891,13.598-10.666,30.373-10.666C433.182,415.877,446.779,420.652,446.779,426.543z"/>
			<path style="fill:#FCC670;" d="M416.408,435.21c-17.58,0-28.373-5.048-28.373-8.667c0-3.618,10.793-8.666,28.373-8.666
				c17.578,0,28.371,5.048,28.371,8.666C444.779,430.162,433.986,435.21,416.408,435.21z"/>
		</g>
		<g>
			<path style="fill:#FCC670;" d="M446.779,418.105c0-5.891-13.598-10.666-30.371-10.666c-16.775,0-30.373,4.775-30.373,10.666
				c0,1.135,0,5.373,0,6.508c0,5.892,13.598,10.667,30.373,10.667c16.773,0,30.371-4.775,30.371-10.667
				C446.779,423.478,446.779,419.24,446.779,418.105z"/>
			<path style="fill:#D17F35;" d="M446.779,418.105c0,5.892-13.598,10.667-30.371,10.667c-16.775,0-30.373-4.775-30.373-10.667
				c0-5.891,13.598-10.666,30.373-10.666C433.182,407.44,446.779,412.215,446.779,418.105z"/>
			<path style="fill:#FCC670;" d="M416.408,426.772c-17.58,0-28.373-5.048-28.373-8.667c0-3.618,10.793-8.666,28.373-8.666
				c17.578,0,28.371,5.048,28.371,8.666C444.779,421.725,433.986,426.772,416.408,426.772z"/>
		</g>
		<g>
			<path style="fill:#FCC670;" d="M446.779,409.668c0-5.891-13.598-10.666-30.371-10.666c-16.775,0-30.373,4.775-30.373,10.666
				c0,1.135,0,5.373,0,6.508c0,5.892,13.598,10.667,30.373,10.667c16.773,0,30.371-4.775,30.371-10.667
				C446.779,415.041,446.779,410.803,446.779,409.668z"/>
			<path style="fill:#D17F35;" d="M446.779,409.668c0,5.892-13.598,10.667-30.371,10.667c-16.775,0-30.373-4.775-30.373-10.667
				c0-5.891,13.598-10.666,30.373-10.666C433.182,399.002,446.779,403.777,446.779,409.668z"/>
			<path style="fill:#FCC670;" d="M416.408,418.335c-17.58,0-28.373-5.048-28.373-8.667c0-3.618,10.793-8.666,28.373-8.666
				c17.578,0,28.371,5.048,28.371,8.666C444.779,413.287,433.986,418.335,416.408,418.335z"/>
		</g>
		<g>
			<path style="fill:#FCC670;" d="M446.779,401.23c0-5.891-13.598-10.666-30.371-10.666c-16.775,0-30.373,4.775-30.373,10.666
				c0,1.135,0,5.373,0,6.508c0,5.892,13.598,10.667,30.373,10.667c16.773,0,30.371-4.775,30.371-10.667
				C446.779,406.603,446.779,402.365,446.779,401.23z"/>
			<path style="fill:#D17F35;" d="M446.779,401.23c0,5.892-13.598,10.667-30.371,10.667c-16.775,0-30.373-4.775-30.373-10.667
				c0-5.891,13.598-10.666,30.373-10.666C433.182,390.565,446.779,395.34,446.779,401.23z"/>
			<path style="fill:#FCC670;" d="M416.408,409.897c-17.58,0-28.373-5.048-28.373-8.667c0-3.618,10.793-8.666,28.373-8.666
				c17.578,0,28.371,5.048,28.371,8.666C444.779,404.85,433.986,409.897,416.408,409.897z"/>
		</g>
		<g>
			<path style="fill:#FCC670;" d="M446.779,392.793c0-5.891-13.598-10.666-30.371-10.666c-16.775,0-30.373,4.775-30.373,10.666
				c0,1.135,0,5.373,0,6.508c0,5.892,13.598,10.667,30.373,10.667c16.773,0,30.371-4.775,30.371-10.667
				C446.779,398.166,446.779,393.928,446.779,392.793z"/>
			<path style="fill:#D17F35;" d="M446.779,392.793c0,5.892-13.598,10.667-30.371,10.667c-16.775,0-30.373-4.775-30.373-10.667
				c0-5.891,13.598-10.666,30.373-10.666C433.182,382.127,446.779,386.902,446.779,392.793z"/>
			<path style="fill:#FCC670;" d="M416.408,401.46c-17.58,0-28.373-5.048-28.373-8.667c0-3.618,10.793-8.666,28.373-8.666
				c17.578,0,28.371,5.048,28.371,8.666C444.779,396.412,433.986,401.46,416.408,401.46z"/>
		</g>
		<g>
			<path style="fill:#FCC670;" d="M446.779,384.355c0-5.891-13.598-10.666-30.371-10.666c-16.775,0-30.373,4.775-30.373,10.666
				c0,1.135,0,5.373,0,6.508c0,5.892,13.598,10.667,30.373,10.667c16.773,0,30.371-4.775,30.371-10.667
				C446.779,389.728,446.779,385.49,446.779,384.355z"/>
			<path style="fill:#D17F35;" d="M446.779,384.355c0,5.892-13.598,10.667-30.371,10.667c-16.775,0-30.373-4.775-30.373-10.667
				c0-5.891,13.598-10.666,30.373-10.666C433.182,373.69,446.779,378.465,446.779,384.355z"/>
			<path style="fill:#FCC670;" d="M416.408,393.022c-17.58,0-28.373-5.048-28.373-8.667c0-3.618,10.793-8.666,28.373-8.666
				c17.578,0,28.371,5.048,28.371,8.666C444.779,387.975,433.986,393.022,416.408,393.022z"/>
		</g>
		<g>
			<path style="fill:#FCC670;" d="M446.779,375.918c0-5.891-13.598-10.666-30.371-10.666c-16.775,0-30.373,4.775-30.373,10.666
				c0,1.135,0,5.373,0,6.508c0,5.892,13.598,10.667,30.373,10.667c16.773,0,30.371-4.775,30.371-10.667
				C446.779,381.291,446.779,377.053,446.779,375.918z"/>
			<path style="fill:#D17F35;" d="M446.779,375.918c0,5.892-13.598,10.667-30.371,10.667c-16.775,0-30.373-4.775-30.373-10.667
				c0-5.891,13.598-10.666,30.373-10.666C433.182,365.252,446.779,370.027,446.779,375.918z"/>
			<path style="fill:#FCC670;" d="M416.408,384.585c-17.58,0-28.373-5.048-28.373-8.667c0-3.618,10.793-8.666,28.373-8.666
				c17.578,0,28.371,5.048,28.371,8.666C444.779,379.537,433.986,384.585,416.408,384.585z"/>
		</g>
		<g>
			<path style="fill:#FCC670;" d="M446.779,367.48c0-5.891-13.598-10.666-30.371-10.666c-16.775,0-30.373,4.775-30.373,10.666
				c0,1.135,0,5.373,0,6.508c0,5.892,13.598,10.667,30.373,10.667c16.773,0,30.371-4.775,30.371-10.667
				C446.779,372.853,446.779,368.615,446.779,367.48z"/>
			<path style="fill:#D17F35;" d="M446.779,367.48c0,5.892-13.598,10.667-30.371,10.667c-16.775,0-30.373-4.775-30.373-10.667
				c0-5.891,13.598-10.666,30.373-10.666C433.182,356.815,446.779,361.59,446.779,367.48z"/>
			<path style="fill:#FCC670;" d="M416.408,376.147c-17.58,0-28.373-5.048-28.373-8.667c0-3.618,10.793-8.666,28.373-8.666
				c17.578,0,28.371,5.048,28.371,8.666C444.779,371.1,433.986,376.147,416.408,376.147z"/>
		</g>
		<g>
			<path style="fill:#FCC670;" d="M446.779,359.043c0-5.891-13.598-10.666-30.371-10.666c-16.775,0-30.373,4.775-30.373,10.666
				c0,1.135,0,5.373,0,6.508c0,5.892,13.598,10.667,30.373,10.667c16.773,0,30.371-4.775,30.371-10.667
				C446.779,364.416,446.779,360.178,446.779,359.043z"/>
			<path style="fill:#D17F35;" d="M446.779,359.043c0,5.892-13.598,10.667-30.371,10.667c-16.775,0-30.373-4.775-30.373-10.667
				c0-5.891,13.598-10.666,30.373-10.666C433.182,348.377,446.779,353.152,446.779,359.043z"/>
			<path style="fill:#FCC670;" d="M416.408,367.71c-17.58,0-28.373-5.048-28.373-8.667c0-3.618,10.793-8.666,28.373-8.666
				c17.578,0,28.371,5.048,28.371,8.666C444.779,362.662,433.986,367.71,416.408,367.71z"/>
		</g>
		<g>
			<path style="fill:#FCC670;" d="M446.779,350.605c0-5.891-13.598-10.666-30.371-10.666c-16.775,0-30.373,4.775-30.373,10.666
				c0,1.135,0,5.373,0,6.508c0,5.892,13.598,10.667,30.373,10.667c16.773,0,30.371-4.775,30.371-10.667
				C446.779,355.978,446.779,351.74,446.779,350.605z"/>
			<path style="fill:#D17F35;" d="M446.779,350.605c0,5.892-13.598,10.667-30.371,10.667c-16.775,0-30.373-4.775-30.373-10.667
				c0-5.891,13.598-10.666,30.373-10.666C433.182,339.94,446.779,344.715,446.779,350.605z"/>
			<path style="fill:#FCC670;" d="M416.408,359.272c-17.58,0-28.373-5.048-28.373-8.667c0-3.618,10.793-8.666,28.373-8.666
				c17.578,0,28.371,5.048,28.371,8.666C444.779,354.225,433.986,359.272,416.408,359.272z"/>
		</g>
		<g>
			<path style="fill:#FCC670;" d="M446.779,342.168c0-5.891-13.598-10.666-30.371-10.666c-16.775,0-30.373,4.775-30.373,10.666
				c0,1.135,0,5.373,0,6.508c0,5.892,13.598,10.667,30.373,10.667c16.773,0,30.371-4.775,30.371-10.667
				C446.779,347.541,446.779,343.303,446.779,342.168z"/>
			<path style="fill:#D17F35;" d="M446.779,342.168c0,5.892-13.598,10.667-30.371,10.667c-16.775,0-30.373-4.775-30.373-10.667
				c0-5.891,13.598-10.666,30.373-10.666C433.182,331.502,446.779,336.277,446.779,342.168z"/>
			<path style="fill:#FCC670;" d="M416.408,350.835c-17.58,0-28.373-5.048-28.373-8.667c0-3.618,10.793-8.666,28.373-8.666
				c17.578,0,28.371,5.048,28.371,8.666C444.779,345.787,433.986,350.835,416.408,350.835z"/>
		</g>
		<g>
			<path style="fill:#FCC670;" d="M446.779,333.73c0-5.891-13.598-10.666-30.371-10.666c-16.775,0-30.373,4.775-30.373,10.666
				c0,1.135,0,5.373,0,6.508c0,5.892,13.598,10.667,30.373,10.667c16.773,0,30.371-4.775,30.371-10.667
				C446.779,339.103,446.779,334.865,446.779,333.73z"/>
			<path style="fill:#D17F35;" d="M446.779,333.73c0,5.892-13.598,10.667-30.371,10.667c-16.775,0-30.373-4.775-30.373-10.667
				c0-5.891,13.598-10.666,30.373-10.666C433.182,323.065,446.779,327.84,446.779,333.73z"/>
			<path style="fill:#FCC670;" d="M416.408,342.397c-17.58,0-28.373-5.048-28.373-8.667c0-3.618,10.793-8.666,28.373-8.666
				c17.578,0,28.371,5.048,28.371,8.666C444.779,337.35,433.986,342.397,416.408,342.397z"/>
		</g>
		<g>
			<path style="fill:#FCC670;" d="M446.779,325.293c0-5.891-13.598-10.666-30.371-10.666c-16.775,0-30.373,4.775-30.373,10.666
				c0,1.135,0,5.373,0,6.508c0,5.892,13.598,10.667,30.373,10.667c16.773,0,30.371-4.775,30.371-10.667
				C446.779,330.666,446.779,326.428,446.779,325.293z"/>
			<path style="fill:#D17F35;" d="M446.779,325.293c0,5.892-13.598,10.667-30.371,10.667c-16.775,0-30.373-4.775-30.373-10.667
				c0-5.891,13.598-10.666,30.373-10.666C433.182,314.627,446.779,319.402,446.779,325.293z"/>
			<path style="fill:#FCC670;" d="M416.408,333.96c-17.58,0-28.373-5.048-28.373-8.667c0-3.618,10.793-8.666,28.373-8.666
				c17.578,0,28.371,5.048,28.371,8.666C444.779,328.912,433.986,333.96,416.408,333.96z"/>
		</g>
		<g>
			<path style="fill:#FCC670;" d="M446.779,316.855c0-5.891-13.598-10.666-30.371-10.666c-16.775,0-30.373,4.775-30.373,10.666
				c0,1.135,0,5.373,0,6.508c0,5.892,13.598,10.667,30.373,10.667c16.773,0,30.371-4.775,30.371-10.667
				C446.779,322.228,446.779,317.99,446.779,316.855z"/>
			<path style="fill:#D17F35;" d="M446.779,316.855c0,5.892-13.598,10.667-30.371,10.667c-16.775,0-30.373-4.775-30.373-10.667
				c0-5.891,13.598-10.666,30.373-10.666C433.182,306.19,446.779,310.965,446.779,316.855z"/>
			<path style="fill:#FCC670;" d="M416.408,325.522c-17.58,0-28.373-5.048-28.373-8.667c0-3.618,10.793-8.666,28.373-8.666
				c17.578,0,28.371,5.048,28.371,8.666C444.779,320.475,433.986,325.522,416.408,325.522z"/>
		</g>
		<g>
			<path style="fill:#FCC670;" d="M446.779,308.418c0-5.891-13.598-10.666-30.371-10.666c-16.775,0-30.373,4.775-30.373,10.666
				c0,1.135,0,5.373,0,6.508c0,5.892,13.598,10.667,30.373,10.667c16.773,0,30.371-4.775,30.371-10.667
				C446.779,313.791,446.779,309.553,446.779,308.418z"/>
			<path style="fill:#D17F35;" d="M446.779,308.418c0,5.892-13.598,10.667-30.371,10.667c-16.775,0-30.373-4.775-30.373-10.667
				c0-5.891,13.598-10.666,30.373-10.666C433.182,297.752,446.779,302.527,446.779,308.418z"/>
			<path style="fill:#FCC670;" d="M416.408,317.085c-17.58,0-28.373-5.048-28.373-8.667c0-3.618,10.793-8.666,28.373-8.666
				c17.578,0,28.371,5.048,28.371,8.666C444.779,312.037,433.986,317.085,416.408,317.085z"/>
		</g>
		<g>
			<path style="fill:#FCC670;" d="M446.779,299.98c0-5.891-13.598-10.666-30.371-10.666c-16.775,0-30.373,4.775-30.373,10.666
				c0,1.135,0,5.373,0,6.508c0,5.892,13.598,10.667,30.373,10.667c16.773,0,30.371-4.775,30.371-10.667
				C446.779,305.353,446.779,301.115,446.779,299.98z"/>
			<path style="fill:#D17F35;" d="M446.779,299.98c0,5.892-13.598,10.667-30.371,10.667c-16.775,0-30.373-4.775-30.373-10.667
				c0-5.891,13.598-10.666,30.373-10.666C433.182,289.315,446.779,294.09,446.779,299.98z"/>
			<path style="fill:#FCC670;" d="M416.408,308.647c-17.58,0-28.373-5.048-28.373-8.667c0-3.618,10.793-8.666,28.373-8.666
				c17.578,0,28.371,5.048,28.371,8.666C444.779,303.6,433.986,308.647,416.408,308.647z"/>
		</g>
		<g>
			<path style="fill:#FCC670;" d="M446.779,291.543c0-5.891-13.598-10.666-30.371-10.666c-16.775,0-30.373,4.775-30.373,10.666
				c0,1.135,0,5.373,0,6.508c0,5.892,13.598,10.667,30.373,10.667c16.773,0,30.371-4.775,30.371-10.667
				C446.779,296.916,446.779,292.678,446.779,291.543z"/>
			<path style="fill:#D17F35;" d="M446.779,291.543c0,5.892-13.598,10.667-30.371,10.667c-16.775,0-30.373-4.775-30.373-10.667
				c0-5.891,13.598-10.666,30.373-10.666C433.182,280.877,446.779,285.652,446.779,291.543z"/>
			<path style="fill:#FCC670;" d="M416.408,300.21c-17.58,0-28.373-5.048-28.373-8.667c0-3.618,10.793-8.666,28.373-8.666
				c17.578,0,28.371,5.048,28.371,8.666C444.779,295.162,433.986,300.21,416.408,300.21z"/>
		</g>
		<g>
			<path style="fill:#FCC670;" d="M446.779,283.105c0-5.891-13.598-10.666-30.371-10.666c-16.775,0-30.373,4.775-30.373,10.666
				c0,1.135,0,5.373,0,6.508c0,5.892,13.598,10.667,30.373,10.667c16.773,0,30.371-4.775,30.371-10.667
				C446.779,288.478,446.779,284.24,446.779,283.105z"/>
			<path style="fill:#D17F35;" d="M446.779,283.105c0,5.892-13.598,10.667-30.371,10.667c-16.775,0-30.373-4.775-30.373-10.667
				c0-5.891,13.598-10.666,30.373-10.666C433.182,272.44,446.779,277.215,446.779,283.105z"/>
			<path style="fill:#FCC670;" d="M416.408,291.772c-17.58,0-28.373-5.048-28.373-8.667c0-3.618,10.793-8.666,28.373-8.666
				c17.578,0,28.371,5.048,28.371,8.666C444.779,286.725,433.986,291.772,416.408,291.772z"/>
		</g>
		<g>
			<path style="fill:#FCC670;" d="M446.779,274.668c0-5.891-13.598-10.666-30.371-10.666c-16.775,0-30.373,4.775-30.373,10.666
				c0,1.135,0,5.373,0,6.508c0,5.892,13.598,10.667,30.373,10.667c16.773,0,30.371-4.775,30.371-10.667
				C446.779,280.041,446.779,275.803,446.779,274.668z"/>
			<path style="fill:#D17F35;" d="M446.779,274.668c0,5.892-13.598,10.667-30.371,10.667c-16.775,0-30.373-4.775-30.373-10.667
				c0-5.891,13.598-10.666,30.373-10.666C433.182,264.002,446.779,268.777,446.779,274.668z"/>
			<path style="fill:#FCC670;" d="M416.408,283.335c-17.58,0-28.373-5.048-28.373-8.667c0-3.618,10.793-8.666,28.373-8.666
				c17.578,0,28.371,5.048,28.371,8.666C444.779,278.287,433.986,283.335,416.408,283.335z"/>
		</g>
		<g>
			<path style="fill:#FCC670;" d="M446.779,266.23c0-5.891-13.598-10.666-30.371-10.666c-16.775,0-30.373,4.775-30.373,10.666
				c0,1.135,0,5.373,0,6.508c0,5.892,13.598,10.667,30.373,10.667c16.773,0,30.371-4.775,30.371-10.667
				C446.779,271.603,446.779,267.365,446.779,266.23z"/>
			<path style="fill:#D17F35;" d="M446.779,266.23c0,5.892-13.598,10.667-30.371,10.667c-16.775,0-30.373-4.775-30.373-10.667
				c0-5.891,13.598-10.666,30.373-10.666C433.182,255.564,446.779,260.34,446.779,266.23z"/>
			<path style="fill:#FCC670;" d="M416.408,274.897c-17.58,0-28.373-5.048-28.373-8.667c0-3.618,10.793-8.666,28.373-8.666
				c17.578,0,28.371,5.048,28.371,8.666C444.779,269.85,433.986,274.897,416.408,274.897z"/>
		</g>
		<g>
			<path style="fill:#FCC670;" d="M446.779,257.793c0-5.891-13.598-10.666-30.371-10.666c-16.775,0-30.373,4.775-30.373,10.666
				c0,1.135,0,5.373,0,6.508c0,5.892,13.598,10.667,30.373,10.667c16.773,0,30.371-4.775,30.371-10.667
				C446.779,263.166,446.779,258.928,446.779,257.793z"/>
			<path style="fill:#D17F35;" d="M446.779,257.793c0,5.892-13.598,10.667-30.371,10.667c-16.775,0-30.373-4.775-30.373-10.667
				c0-5.891,13.598-10.666,30.373-10.666C433.182,247.127,446.779,251.902,446.779,257.793z"/>
			<path style="fill:#FCC670;" d="M416.408,266.46c-17.58,0-28.373-5.048-28.373-8.667c0-3.618,10.793-8.666,28.373-8.666
				c17.578,0,28.371,5.048,28.371,8.666C444.779,261.412,433.986,266.46,416.408,266.46z"/>
		</g>
		<g>
			<path style="fill:#FCC670;" d="M446.779,249.355c0-5.891-13.598-10.666-30.371-10.666c-16.775,0-30.373,4.775-30.373,10.666
				c0,1.135,0,5.373,0,6.508c0,5.892,13.598,10.667,30.373,10.667c16.773,0,30.371-4.775,30.371-10.667
				C446.779,254.729,446.779,250.49,446.779,249.355z"/>
			<path style="fill:#D17F35;" d="M446.779,249.355c0,5.892-13.598,10.667-30.371,10.667c-16.775,0-30.373-4.775-30.373-10.667
				c0-5.891,13.598-10.666,30.373-10.666C433.182,238.689,446.779,243.465,446.779,249.355z"/>
			<path style="fill:#FCC670;" d="M416.408,258.022c-17.58,0-28.373-5.048-28.373-8.667c0-3.618,10.793-8.666,28.373-8.666
				c17.578,0,28.371,5.048,28.371,8.666C444.779,252.975,433.986,258.022,416.408,258.022z"/>
		</g>
		<g>
			<path style="fill:#FCC670;" d="M446.779,240.918c0-5.891-13.598-10.666-30.371-10.666c-16.775,0-30.373,4.775-30.373,10.666
				c0,1.135,0,5.373,0,6.508c0,5.892,13.598,10.667,30.373,10.667c16.773,0,30.371-4.775,30.371-10.667
				C446.779,246.291,446.779,242.053,446.779,240.918z"/>
			<path style="fill:#D17F35;" d="M446.779,240.918c0,5.892-13.598,10.667-30.371,10.667c-16.775,0-30.373-4.775-30.373-10.667
				c0-5.891,13.598-10.666,30.373-10.666C433.182,230.252,446.779,235.027,446.779,240.918z"/>
			<path style="fill:#FCC670;" d="M416.408,249.585c-17.58,0-28.373-5.048-28.373-8.667c0-3.618,10.793-8.666,28.373-8.666
				c17.578,0,28.371,5.048,28.371,8.666C444.779,244.537,433.986,249.585,416.408,249.585z"/>
		</g>
		<g>
			<path style="fill:#FCC670;" d="M446.779,232.48c0-5.891-13.598-10.666-30.371-10.666c-16.775,0-30.373,4.775-30.373,10.666
				c0,1.135,0,5.373,0,6.508c0,5.892,13.598,10.667,30.373,10.667c16.773,0,30.371-4.775,30.371-10.667
				C446.779,237.854,446.779,233.615,446.779,232.48z"/>
			<path style="fill:#D17F35;" d="M446.779,232.48c0,5.892-13.598,10.667-30.371,10.667c-16.775,0-30.373-4.775-30.373-10.667
				c0-5.891,13.598-10.666,30.373-10.666C433.182,221.814,446.779,226.59,446.779,232.48z"/>
			<path style="fill:#FCC670;" d="M416.408,241.148c-17.58,0-28.373-5.048-28.373-8.667c0-3.618,10.793-8.666,28.373-8.666
				c17.578,0,28.371,5.048,28.371,8.666C444.779,236.1,433.986,241.148,416.408,241.148z"/>
		</g>
		<g>
			<path style="fill:#FCC670;" d="M446.779,224.074c0-5.891-13.598-10.666-30.371-10.666c-16.775,0-30.373,4.775-30.373,10.666
				c0,1.135,0,5.373,0,6.508c0,5.892,13.598,10.667,30.373,10.667c16.773,0,30.371-4.775,30.371-10.667
				C446.779,229.447,446.779,225.209,446.779,224.074z"/>
			<path style="fill:#D17F35;" d="M446.779,224.074c0,5.892-13.598,10.667-30.371,10.667c-16.775,0-30.373-4.775-30.373-10.667
				c0-5.891,13.598-10.666,30.373-10.666C433.182,213.408,446.779,218.184,446.779,224.074z"/>
			<path style="fill:#FCC670;" d="M416.408,232.741c-17.58,0-28.373-5.048-28.373-8.667c0-3.618,10.793-8.666,28.373-8.666
				c17.578,0,28.371,5.048,28.371,8.666C444.779,227.693,433.986,232.741,416.408,232.741z"/>
		</g>
	</g>
	<g>
		<path style="fill:#EBF5E9;" d="M358.531,168.493c0,0,4.002,3.917,4.834,8.917c0,0-28.916,27.25-62.416,24.375
			c0,0-3.461-1.097-3-6.625c0.375-4.5,6.375-5.75,9.125-6.25S332.824,188.91,358.531,168.493z"/>
		<path style="fill:#F9FFF5;" d="M358.531,168.493c-1.447,1.149-2.883,2.224-4.311,3.244c1.566,1.474,4.16,4.459,5.393,8.868
			c2.416-1.938,3.752-3.195,3.752-3.195C362.533,172.41,358.531,168.493,358.531,168.493z"/>
		<path style="fill:#993904;" d="M327.427,122.472c-1.748-1.048-2.519-2.924,1.299-8.043c4.479-6.003,6.661-5.361,8.043-4.874
			c1.381,0.488,2.112,4.468-0.813,8.205C333.032,121.497,329.457,123.69,327.427,122.472z"/>
		<path style="fill:#C44F02;" d="M304.031,162.758c0,0-5.118,5.362-8.612,3.412c-3.492-1.95-5.279-7.393-4.386-12.023
			c0.894-4.631-3.413-15.842-7.719-22.747c-4.305-6.906-7.067-13.161-2.843-17.792c4.225-4.631,9.911-6.254,15.11-7.312
			c5.2-1.056,9.587-4.549,12.917-9.83c3.331-5.28,9.424-14.867,20.554-11.373c11.129,3.494,14.459,20.473,2.924,30.952l-4.062,4.225
			l-11.373,8.449l-12.674,4.712l2.762,12.592c0,0,1.829,6.309,0.406,11.292C306.386,159.588,304.031,162.758,304.031,162.758z"/>
		<path style="fill:#FDD3AF;" d="M337.502,164.382c-3.164,5.621-8.612,7.798-13.486,9.18c-4.875,1.381-5.442,1.869-9.343,5.768
			c-3.9,3.899-9.017,11.618-9.017,11.618c-7.799,0.325-11.212-5.2-11.212-5.2c9.586-20.391,1.462-28.84,1.462-28.84
			c-1.95,1.706-5.768,1.462-7.88-1.299c-1.988-2.602-2.355-8.958,1.219-11.211c3.736-2.356,5.525,0.325,6.58,1.788
			c1.057,1.462,0.325,5.443,0.731,5.93c0.406,0.488,2.112,1.625,3.817,3.25c1.706,1.624,2.926-0.487,2.926-0.487
			c0.894-5.931-5.443-22.016-6.175-24.859c-0.731-2.844,1.463-3.249,1.463-3.249c1.218-0.163,4.549-0.731,4.549-0.731
			c15.841-1.138,28.84-9.993,28.84-9.993s-1.138,9.667,1.381,15.435c2.52,5.768,5.605,4.469,6.581,4.631
			c0.975,0.163,4.469-0.325,5.117,4.143c0.65,4.468-2.682,6.743-5.036,6.662c0,0,0,3.006,0.568,4.794
			c0.569,1.787-1.462,2.6-2.519,3.087c-1.057,0.488-10.56,3.737-16.734-0.813c0,0,1.543,10.399,15.191,9.099
			C336.526,163.081,338.233,163.081,337.502,164.382z"/>
		<path style="fill:#993904;" d="M314.673,127.255c-1.746-1.048-2.518-2.925,1.301-8.042c4.478-6.003,6.661-5.362,8.042-4.875
			c1.382,0.487,2.111,4.467-0.813,8.205C320.278,126.28,316.704,128.474,314.673,127.255z"/>
		<path style="fill:#682301;" d="M325.475,133.37c0.129,2.082-0.494,3.814-1.389,3.87c-0.896,0.055-1.725-1.589-1.854-3.671
			c-0.127-2.083,0.495-3.815,1.391-3.871C324.518,129.644,325.348,131.288,325.475,133.37z"/>
		<path style="fill:#2D0E01;" d="M325.185,133.327c0.079,1.291-0.306,2.366-0.862,2.4c-0.556,0.035-1.07-0.985-1.149-2.277
			c-0.079-1.292,0.308-2.366,0.861-2.401C324.591,131.016,325.104,132.035,325.185,133.327z"/>
		<path style="fill:#E09563;" d="M326.435,137.983c0,0-3.888-0.056-6.432,2.098c0,0-0.364,0.279-0.112,0.698
			c0.252,0.42,1.176,0.448,2.015,0.14c0.838-0.307,4.725-2.041,4.837-2.517C326.855,137.927,326.435,137.983,326.435,137.983z"/>
		<path style="fill:#682301;" d="M175.699,197.076c0,0-3.667-3.333-4-8.166l-0.166-3.167c0,0-0.5-1.834-3-2.167
			c-2.5-0.333-5.667-1.666-6,0.667c0,0-1.001,1.166-4.834,0.833c-3.833-0.333-10.333-1.667-16.666,4c0,0-0.833,2.667,1.167,2.834
			c2,0.166,19.166,0.667,29,9.833c0,0,1.667,2,4.5,0.5C178.532,200.743,175.699,197.076,175.699,197.076z"/>
		<path style="fill:#2D0E01;" d="M171.532,185.743c0,0-0.5-1.834-3-2.167c-2.5-0.333-5.667-1.666-6,0.667
			c0,0-1.001,1.166-4.834,0.833c-3.833-0.333-10.333-1.667-16.666,4c0,0-0.178,0.578-0.169,1.213
			c1.222-1.043,4.129-3.099,8.669-3.712c5.677-0.768,15.724-0.262,22.096,0.994L171.532,185.743z"/>
		<path style="fill:#2D0E01;" d="M152.053,192.139c-0.003,0.369-0.118,0.608-0.264,0.936c-0.259,0.579,0.596,1.084,0.856,0.501
			c0.22-0.493,0.395-0.884,0.4-1.436C153.051,191.499,152.059,191.499,152.053,192.139z"/>
		<path style="fill:#2D0E01;" d="M155.277,192.613c-0.022,0.242-0.099,0.798-0.281,0.977c-0.458,0.449,0.245,1.15,0.701,0.701
			c0.407-0.399,0.522-1.134,0.572-1.678C156.327,191.976,155.334,191.981,155.277,192.613z"/>
		<path style="fill:#2D0E01;" d="M158.596,193.087c-0.008,0.619-0.253,0.978-0.596,1.457c-0.374,0.521,0.487,1.016,0.856,0.501
			c0.185-0.259,0.413-0.487,0.523-0.791c0.134-0.37,0.204-0.773,0.209-1.167C159.596,192.447,158.604,192.448,158.596,193.087z"/>
		<path style="fill:#003151;" d="M261.365,232.077c5.943-9.656-12.167-23.167-12.167-23.167c-9-3.334-20.5,3.833-29,5
			c-8.5,1.166-16.833,1-16.833,1c-10.833-5.5-26.5-21.167-26.5-21.167c-6.833,1.167-9.167,8-9.167,8s14.834,15,20.834,20.5
			c0,0,2.833,5.5,8.166,4.167C196.699,226.41,254.699,242.91,261.365,232.077z"/>
		<path style="fill:#682301;" d="M173.634,237.24c0,0-4.698-1.577-6.946-5.868l-1.426-2.832c0,0-1.195-1.479-3.618-0.777
			c-2.423,0.7-5.858,0.753-5.225,3.023c0,0-0.447,1.47-4.09,2.707c-3.643,1.236-10.13,2.629-13.65,10.364
			c0,0,0.31,2.777,2.208,2.126c1.898-0.652,17.817-7.099,30.506-2.661c0,0,2.33,1.161,4.321-1.352
			C177.703,239.458,173.634,237.24,173.634,237.24z"/>
		<path style="fill:#2D0E01;" d="M165.261,228.54c0,0-1.195-1.479-3.618-0.777c-2.423,0.7-5.858,0.753-5.225,3.023
			c0,0-0.447,1.47-4.09,2.707c-3.643,1.236-10.13,2.629-13.65,10.364c0,0,0.07,0.602,0.333,1.18
			c0.699-1.447,2.535-4.498,6.444-6.887c4.89-2.985,14.291-6.563,20.63-7.976L165.261,228.54z"/>
		<path style="fill:#2D0E01;" d="M149.999,242.23c0.145,0.339,0.136,0.604,0.134,0.962c-0.004,0.635,0.982,0.753,0.985,0.115
			c0.003-0.541,0.006-0.969-0.211-1.477C150.656,241.242,149.748,241.642,149.999,242.23z"/>
		<path style="fill:#2D0E01;" d="M153.142,241.367c0.077,0.231,0.23,0.77,0.136,1.007c-0.238,0.596,0.687,0.955,0.924,0.36
			c0.212-0.529,0.022-1.248-0.151-1.767C153.847,240.361,152.94,240.766,153.142,241.367z"/>
		<path style="fill:#2D0E01;" d="M156.371,240.466c0.242,0.57,0.162,0.996,0.04,1.574c-0.132,0.627,0.855,0.733,0.985,0.113
			c0.066-0.311,0.182-0.611,0.161-0.934c-0.026-0.393-0.124-0.789-0.278-1.153C157.029,239.477,156.121,239.878,156.371,240.466z"/>
		<path style="fill:#10435E;" d="M266.145,234.831c1.557-11.23-17.946-26.255-17.946-26.255c-9.581,0.568-18.572,10.977-23.5,18
			c-6.666,9.5-14.833,13.334-14.833,13.334c-12.13-0.68-36.503-6.191-36.503-6.191c-5.787,3.816-5.175,11.012-5.175,11.012
			s29.473,6.724,37.179,9.347c0,0,4.805,3.895,9.152,0.529C214.518,254.606,264.396,247.431,266.145,234.831z"/>
		<path style="fill:#E6F2E5;" d="M246.199,208.41c0,0,1.334-3.001,7.335-3.334c6-0.333,17.5-2.333,26.832-12.833
			c9.334-10.5,8.168-8.834,12-9.667c0,0,14.166,7.167,18.334,6.834c0,0-9.166,45-46.666,48.5c0,0-7.143,0.638-14.168-15.167
			C244.532,210.743,246.199,208.41,246.199,208.41z"/>
		<path style="fill:#682301;" d="M245.365,208.243c0,0-0.999,24.833,17,31.833c0,0,3.668-0.167,8.5-3.167
			c0,0-18.166-0.833-20.167-31.333C250.699,205.576,245.032,206.909,245.365,208.243z"/>
		<path style="fill:#BF3B24;" d="M298.713,193.568c0,0,4.467-3.353,7.499-3.033c3.033,0.319,0,7.5,0,7.5s-5.903,5.268-7.819,4.15
			C296.477,201.068,297.914,194.686,298.713,193.568z"/>
		<path style="fill:#BF3B24;" d="M300.787,199.951c0,0-3.352,15.001-14.683,18.353c-11.329,3.351-18.031,0-23.776,0.957
			c-5.745,0.958-6.226,6.224-10.373,7.341c-4.149,1.116-16.597,0.478-16.756-1.597c-0.16-2.075,7.66-11.011,11.171-14.043
			c3.51-3.032,11.492-3.829,18.353-1.595c6.86,2.234,21.702,7.021,33.033-9.895C297.756,199.472,300.309,197.079,300.787,199.951z"
			/>
		<path style="fill:#F9FFF5;" d="M307.248,187.593c0,0,2.201-0.388,2.461,1.943c0.259,2.331-1.028,7.039-3.886,6.087
			c-0.777-0.259-0.443-1.752-0.129-3.367C306.127,190.033,306.573,187.368,307.248,187.593z"/>
		<path style="fill:#F9FFF5;" d="M307.248,187.593c0,0-8.418-0.907-11.655-7.382c0,0-0.906-0.777-1.555-0.648
			c-0.648,0.13-4.015,2.85-5.051,3.368c-1.037,0.518,2.978,9.065,11.397,11.656c0,0,1.164,0.518,2.2-0.388
			C303.621,193.291,308.932,189.017,307.248,187.593z"/>
		<path style="fill:#682301;" d="M257.098,260.488l0.105,7.8l-9.877,0.131l-0.103-7.8L257.098,260.488 M258.045,256.475
			l-11.876,0.158c-1.649,0.02-2.981,1.389-2.96,3.039l0.13,9.801c0.022,1.65,1.39,2.981,3.04,2.961l11.878-0.159
			c1.65-0.021,2.98-1.388,2.959-3.039l-0.129-9.801C261.063,257.784,259.695,256.453,258.045,256.475L258.045,256.475z"/>
		<path style="fill:#682301;" d="M232.208,264.278c-1.65,0.023-2.982,1.391-2.961,3.04l0.372,27.997
			c0.021,1.651,1.39,2.983,3.04,2.961l39.998-0.53c1.65-0.021,2.98-1.39,2.959-3.04l-0.371-27.998
			c-0.023-1.649-1.391-2.98-3.039-2.959L232.208,264.278z"/>
		<path style="fill:#D17F35;" d="M256.227,281.361c0.027,2.093-1.646,3.813-3.742,3.841l0,0c-2.09,0.027-3.81-1.646-3.838-3.74
			l-0.033-2.555c-0.029-2.093,1.646-3.813,3.738-3.84l0,0c2.094-0.028,3.813,1.646,3.842,3.739L256.227,281.361z"/>
		<path style="fill:#FCC670;" d="M252.473,284.202c-1.537,0.021-2.806-1.215-2.826-2.755l-0.033-2.554
			c-0.022-1.537,1.214-2.807,2.752-2.827c1.539-0.02,2.807,1.216,2.828,2.752l0.033,2.556
			C255.248,282.913,254.014,284.181,252.473,284.202z"/>
		<g>
			
				<path style="fill:none;stroke:#993904;stroke-width:0.25;stroke-linecap:round;stroke-miterlimit:10;stroke-dasharray:0.2002,0.5005;" d="
				M232.645,297.276c-1.103,0.014-2.011-0.871-2.026-1.974l-0.371-27.998c-0.016-1.102,0.87-2.011,1.973-2.026l39.996-0.53
				c1.103-0.015,2.014,0.87,2.027,1.974l0.371,27.998c0.016,1.102-0.871,2.011-1.973,2.025L232.645,297.276z"/>
		</g>
		<g>
			<path style="fill:#993904;" d="M275.353,274.873c0.022,1.65-1.31,3.017-2.961,3.039l-39.997,0.531
				c-1.65,0.021-3.018-1.311-3.04-2.96l-0.108-8.165c-0.021-1.649,1.31-3.017,2.96-3.04l39.997-0.529
				c1.648-0.021,3.016,1.31,3.039,2.959L275.353,274.873z"/>
			<g>
				
					<path style="fill:none;stroke:#682301;stroke-width:0.25;stroke-linecap:round;stroke-miterlimit:10;stroke-dasharray:0.1994,0.4985;" d="
					M232.383,277.443c-1.105,0.015-2.012-0.871-2.026-1.974l-0.108-8.165c-0.016-1.102,0.87-2.011,1.973-2.026l39.996-0.53
					c1.103-0.015,2.014,0.87,2.027,1.974l0.109,8.164c0.014,1.104-0.873,2.012-1.975,2.026L232.383,277.443z"/>
			</g>
		</g>
		<path style="fill:#FDD3AF;" d="M249.284,248.768c0,0-0.187,2.244-0.926,3.497c-0.74,1.254-4.677,6.739-0.846,8.376
			c3.831,1.639,7.971,0.714,9.166-0.149c0,0,2.084,1.512,4.131,1.255c1.781-0.223,2.318-1.818,1.965-2.365
			c-0.353-0.547-1.646-0.954-3.068-2.386c-0.957-0.962-2.941-4.133-3.488-6.55C255.668,248.029,249.253,246.245,249.284,248.768z"/>
		<path style="fill:#682301;" d="M315.11,139.801c0,0-0.615,0.028-0.223-0.923c0.391-0.951,3.383-7.018,7.436-8.864
			c0,0,0.705-0.301,0.924-0.028c0.511,0.636,0.703,1.595-0.641,2.49c-1.341,0.895-3.653,2.067-5.707,5.368
			C315.614,139.913,315.11,139.801,315.11,139.801z"/>
		<path style="fill:#EFA163;" d="M291.831,146.747c-1.123-0.193-2.205,0.768-2.808,1.589c-0.809,1.103-0.768,2.696-0.288,3.91
			c0.371,0.934,1.408,1.764,2.463,1.54c1.171-0.25,1.687-1.097,1.71-2.262c0.025-1.313-0.552-2.441-1.747-3.026
			c-0.285-0.139-0.669-0.216-1.037-0.2c0.815-0.859,2.127-1.165,3.154-0.225c1.253,1.145,0.98,3.286,0.374,4.649
			c-0.046,0.104,0.102,0.195,0.155,0.091C294.923,150.655,294.734,147.243,291.831,146.747z M292.002,151.825
			c-0.056,0.9-0.639,1.212-1.749,0.936c-0.39-0.272-0.652-0.63-0.79-1.076c-0.261-0.67-0.202-1.427-0.041-2.111
			c0.013-0.053,0.03-0.104,0.047-0.155C291.165,148.644,292.006,150.41,292.002,151.825z"/>
		<g>
			<path style="fill:#FFFFFF;" d="M323.504,133.723c0.642-0.252,0.546-1.383,0.005-1.705c-0.156-0.093-0.397-0.077-0.522,0.067
				c-0.098,0.114-0.165,0.283-0.199,0.464c-0.055,0.182-0.058,0.385-0.02,0.575C322.828,133.427,323.128,133.87,323.504,133.723z"/>
			<path style="fill:#FFFFFF;" d="M324.103,134.081c-0.114-0.051-0.261-0.014-0.31,0.1c-0.004,0.006-0.01,0.007-0.013,0.014
				c-0.007,0.015-0.013,0.03-0.019,0.045c-0.049,0.114-0.039,0.204,0.039,0.301c0.009,0.011,0.018,0.023,0.027,0.034
				c0.109,0.138,0.304,0.063,0.39-0.05c0.01-0.015,0.014-0.031,0.021-0.045v0c0.027-0.053,0.039-0.107,0.042-0.172
				C324.288,134.18,324.204,134.106,324.103,134.081z"/>
			<path style="fill:#FFFFFF;" d="M323.451,134.86c-0.007,0.001-0.013,0.002-0.019,0.003c-0.19,0.026-0.302,0.238-0.313,0.408
				c0,0.011,0.006,0.022,0.006,0.033c-0.032,0.201,0.036,0.418,0.181,0.596c0.145,0.182,0.438,0.143,0.589,0
				c0.261-0.245,0.217-0.569,0.036-0.845C323.815,134.879,323.651,134.833,323.451,134.86z"/>
		</g>
		<g>
			<path style="fill:#FDD3AF;" d="M372.551,163.266l3.623-4.12c-3.125-3.268-8.596-0.498-11.082,2.983
				c-1.529,2.139-3.885,5.372-5.477,7.552c0,0,1.025,1.355,1.422,1.985c0.383,0.608,1.363,2.493,1.363,2.493
				c3.188-2.031,7.31-5.962,8.162-6.347c2.201-0.994,4.262,0.64,4.475-1.634C375.25,163.905,372.551,163.266,372.551,163.266z"/>
		</g>
		<path style="fill:#F2F8EF;" d="M257.771,252.61c0,0-5.564,0.616-9.961-1.905c0,0,0.389-44.628,32.555-64.795
			c0,0,3.619-2.545,7.607,1.313c3.244,3.14,2.059,8.854-0.941,11.02C284.766,199.88,258.248,219.784,257.771,252.61z"/>
		<path style="fill:#FFFFFF;" d="M248.072,246.296c-0.247,2.776-0.262,4.409-0.262,4.409c4.397,2.521,9.961,1.905,9.961,1.905
			c0.025-1.649,0.131-3.257,0.279-4.841C253.762,248.184,250.142,247.131,248.072,246.296z"/>
	</g>
</g>
<g id="DESIGNED_BY_FREEPIK">
	<g>
		<g>
			<g>
				<path style="fill:#F9FFF5;" d="M180.308,479.472v-0.161c-0.218,0.249-0.432,0.453-0.644,0.608
					c-0.212,0.157-0.441,0.275-0.689,0.356c-0.248,0.082-0.517,0.122-0.81,0.122c-0.388,0-0.747-0.082-1.078-0.246
					c-0.33-0.164-0.616-0.399-0.857-0.703c-0.243-0.306-0.425-0.663-0.549-1.075c-0.125-0.412-0.188-0.856-0.188-1.335
					c0-1.014,0.247-1.804,0.743-2.369c0.494-0.565,1.145-0.849,1.953-0.849c0.466,0,0.86,0.081,1.181,0.24
					c0.321,0.16,0.633,0.407,0.938,0.738v-2.392c0-0.333,0.066-0.583,0.199-0.754c0.132-0.17,0.321-0.255,0.567-0.255
					c0.245,0,0.434,0.078,0.566,0.234c0.133,0.156,0.2,0.387,0.2,0.691v7.148c0,0.309-0.072,0.54-0.214,0.694
					c-0.142,0.154-0.326,0.232-0.552,0.232c-0.222,0-0.405-0.08-0.549-0.24C180.38,479.996,180.308,479.768,180.308,479.472
					 M177.12,477.091c0,0.44,0.068,0.814,0.205,1.122c0.136,0.309,0.323,0.541,0.561,0.697c0.237,0.156,0.497,0.235,0.777,0.235
					c0.285,0,0.545-0.074,0.781-0.224c0.235-0.147,0.423-0.376,0.564-0.682c0.141-0.307,0.21-0.69,0.21-1.149
					c0-0.432-0.069-0.803-0.21-1.113c-0.141-0.311-0.331-0.548-0.57-0.713c-0.239-0.163-0.502-0.244-0.786-0.244
					c-0.297,0-0.562,0.083-0.796,0.251c-0.234,0.168-0.414,0.409-0.543,0.724C177.184,476.31,177.12,476.676,177.12,477.091"/>
				<path style="fill:#F9FFF5;" d="M187.454,477.501h-3.17c0.004,0.368,0.078,0.692,0.223,0.974
					c0.145,0.281,0.337,0.492,0.576,0.635c0.24,0.143,0.504,0.213,0.793,0.213c0.194,0,0.371-0.021,0.532-0.066
					c0.16-0.047,0.316-0.117,0.466-0.215c0.15-0.097,0.288-0.201,0.415-0.311c0.127-0.111,0.291-0.263,0.493-0.452
					c0.083-0.07,0.202-0.106,0.357-0.106c0.166,0,0.3,0.046,0.403,0.138c0.103,0.091,0.155,0.219,0.155,0.385
					c0,0.146-0.058,0.317-0.172,0.514c-0.116,0.196-0.289,0.384-0.52,0.565c-0.232,0.18-0.523,0.328-0.873,0.447
					c-0.35,0.119-0.753,0.179-1.208,0.179c-1.041,0-1.85-0.298-2.427-0.891c-0.578-0.593-0.867-1.399-0.867-2.416
					c0-0.478,0.072-0.923,0.214-1.333c0.142-0.409,0.351-0.76,0.623-1.053c0.273-0.293,0.609-0.518,1.01-0.674
					c0.399-0.156,0.843-0.234,1.33-0.234c0.632,0,1.175,0.133,1.628,0.4c0.454,0.267,0.794,0.612,1.018,1.035
					c0.225,0.424,0.339,0.855,0.339,1.294c0,0.408-0.117,0.672-0.35,0.794C188.207,477.44,187.878,477.501,187.454,477.501
					 M184.284,476.581h2.939c-0.04-0.555-0.19-0.97-0.449-1.244c-0.259-0.275-0.6-0.413-1.023-0.413
					c-0.404,0-0.736,0.14-0.995,0.418C184.497,475.621,184.34,476.034,184.284,476.581"/>
				<path style="fill:#F9FFF5;" d="M194.838,478.277c0,0.447-0.108,0.831-0.326,1.149c-0.218,0.318-0.54,0.561-0.965,0.725
					c-0.425,0.164-0.942,0.246-1.552,0.246c-0.582,0-1.08-0.089-1.496-0.268c-0.415-0.178-0.723-0.401-0.92-0.667
					c-0.198-0.268-0.297-0.535-0.297-0.805c0-0.179,0.063-0.33,0.19-0.457c0.127-0.126,0.288-0.19,0.481-0.19
					c0.17,0,0.3,0.041,0.392,0.124c0.091,0.083,0.179,0.2,0.261,0.35c0.166,0.29,0.365,0.505,0.597,0.647
					c0.232,0.143,0.547,0.214,0.947,0.214c0.325,0,0.591-0.072,0.799-0.217c0.208-0.145,0.312-0.31,0.312-0.496
					c0-0.285-0.107-0.491-0.324-0.622c-0.215-0.131-0.57-0.256-1.065-0.375c-0.558-0.138-1.012-0.284-1.362-0.436
					c-0.35-0.151-0.63-0.353-0.839-0.602c-0.21-0.25-0.315-0.557-0.315-0.921c0-0.324,0.097-0.631,0.291-0.92
					c0.194-0.288,0.48-0.519,0.858-0.691c0.378-0.172,0.833-0.259,1.368-0.259c0.42,0,0.797,0.044,1.131,0.132
					c0.335,0.086,0.614,0.203,0.837,0.35c0.224,0.146,0.394,0.309,0.51,0.486c0.117,0.178,0.175,0.353,0.175,0.523
					c0,0.186-0.063,0.338-0.186,0.457c-0.124,0.117-0.302,0.178-0.532,0.178c-0.167,0-0.308-0.047-0.424-0.144
					c-0.116-0.095-0.25-0.236-0.4-0.427c-0.123-0.157-0.267-0.284-0.433-0.381c-0.167-0.094-0.393-0.141-0.678-0.141
					c-0.293,0-0.536,0.061-0.73,0.186c-0.194,0.124-0.29,0.279-0.29,0.466c0,0.171,0.07,0.31,0.213,0.418
					c0.143,0.109,0.335,0.2,0.577,0.27c0.242,0.071,0.573,0.157,0.997,0.261c0.503,0.123,0.913,0.27,1.232,0.439
					c0.318,0.17,0.56,0.371,0.725,0.603C194.756,477.717,194.838,477.98,194.838,478.277"/>
				<path style="fill:#F9FFF5;" d="M196.494,473.055c-0.226,0-0.419-0.069-0.579-0.208c-0.16-0.138-0.24-0.334-0.24-0.588
					c0-0.229,0.082-0.418,0.247-0.567c0.164-0.148,0.355-0.223,0.572-0.223c0.21,0,0.396,0.067,0.558,0.202
					c0.163,0.135,0.244,0.33,0.244,0.588c0,0.25-0.079,0.444-0.238,0.585C196.899,472.984,196.711,473.055,196.494,473.055
					 M197.295,474.728v4.684c0,0.324-0.078,0.57-0.232,0.736c-0.154,0.166-0.35,0.249-0.587,0.249s-0.431-0.085-0.579-0.255
					c-0.149-0.171-0.223-0.414-0.223-0.73v-4.637c0-0.32,0.074-0.561,0.223-0.724c0.148-0.163,0.341-0.244,0.579-0.244
					s0.433,0.081,0.587,0.244C197.218,474.214,197.295,474.44,197.295,474.728"/>
				<path style="fill:#F9FFF5;" d="M204.395,474.996v4.707c0,0.538-0.059,1.001-0.173,1.39c-0.114,0.387-0.298,0.708-0.551,0.961
					c-0.253,0.253-0.585,0.441-0.994,0.563c-0.41,0.123-0.919,0.185-1.529,0.185c-0.558,0-1.056-0.078-1.496-0.234
					c-0.439-0.157-0.777-0.358-1.015-0.605c-0.237-0.247-0.356-0.502-0.356-0.763c0-0.198,0.067-0.36,0.203-0.484
					c0.134-0.125,0.297-0.187,0.486-0.187c0.237,0,0.445,0.105,0.623,0.314c0.086,0.107,0.176,0.216,0.27,0.324
					c0.093,0.109,0.197,0.202,0.309,0.28c0.113,0.076,0.248,0.134,0.407,0.171c0.158,0.037,0.341,0.057,0.546,0.057
					c0.42,0,0.745-0.059,0.977-0.176c0.231-0.116,0.394-0.279,0.487-0.49c0.093-0.208,0.148-0.433,0.163-0.673
					c0.016-0.239,0.028-0.624,0.036-1.155c-0.25,0.35-0.537,0.614-0.864,0.797c-0.326,0.182-0.715,0.272-1.166,0.272
					c-0.542,0-1.016-0.139-1.422-0.416c-0.405-0.276-0.717-0.664-0.935-1.163c-0.218-0.499-0.326-1.074-0.326-1.727
					c0-0.486,0.066-0.926,0.198-1.317c0.133-0.393,0.322-0.723,0.567-0.992c0.245-0.269,0.528-0.472,0.848-0.608
					c0.321-0.136,0.673-0.204,1.057-0.204c0.459,0,0.857,0.088,1.194,0.264c0.335,0.177,0.648,0.453,0.938,0.829v-0.22
					c0-0.281,0.068-0.499,0.207-0.654c0.139-0.153,0.317-0.232,0.535-0.232c0.313,0,0.52,0.103,0.622,0.306
					C204.343,474.317,204.395,474.611,204.395,474.996 M199.699,477.05c0,0.656,0.143,1.153,0.43,1.489
					c0.287,0.337,0.658,0.505,1.113,0.505c0.269,0,0.523-0.072,0.763-0.217c0.24-0.145,0.435-0.362,0.585-0.652
					c0.149-0.292,0.225-0.643,0.225-1.06c0-0.661-0.145-1.176-0.436-1.543c-0.291-0.368-0.674-0.553-1.148-0.553
					c-0.463,0-0.834,0.177-1.113,0.528C199.838,475.899,199.699,476.4,199.699,477.05"/>
				<path style="fill:#F9FFF5;" d="M206.97,474.705v0.195c0.285-0.376,0.596-0.652,0.935-0.828c0.338-0.176,0.727-0.265,1.167-0.265
					c0.427,0,0.809,0.094,1.145,0.28c0.336,0.186,0.588,0.449,0.753,0.788c0.108,0.198,0.176,0.413,0.208,0.642
					c0.032,0.23,0.049,0.522,0.049,0.879v3.016c0,0.324-0.075,0.57-0.223,0.736c-0.149,0.166-0.341,0.249-0.579,0.249
					c-0.242,0-0.438-0.085-0.588-0.255c-0.15-0.171-0.225-0.414-0.225-0.73v-2.701c0-0.534-0.075-0.943-0.223-1.225
					c-0.149-0.282-0.444-0.425-0.888-0.425c-0.289,0-0.552,0.086-0.79,0.258c-0.237,0.173-0.412,0.41-0.522,0.71
					c-0.079,0.242-0.119,0.692-0.119,1.354v2.03c0,0.328-0.076,0.575-0.228,0.739c-0.152,0.164-0.349,0.246-0.591,0.246
					c-0.233,0-0.426-0.085-0.576-0.255c-0.15-0.171-0.226-0.414-0.226-0.73v-4.684c0-0.309,0.068-0.54,0.202-0.692
					c0.135-0.151,0.318-0.229,0.552-0.229c0.143,0,0.271,0.034,0.387,0.102c0.114,0.067,0.207,0.169,0.275,0.302
					C206.936,474.347,206.97,474.511,206.97,474.705"/>
				<path style="fill:#F9FFF5;" d="M216.829,477.501h-3.169c0.004,0.368,0.078,0.692,0.223,0.974
					c0.144,0.281,0.335,0.492,0.576,0.635c0.239,0.143,0.503,0.213,0.792,0.213c0.194,0,0.372-0.021,0.532-0.066
					c0.159-0.047,0.315-0.117,0.466-0.215c0.149-0.097,0.288-0.201,0.416-0.311c0.126-0.111,0.29-0.263,0.492-0.452
					c0.083-0.07,0.202-0.106,0.356-0.106c0.167,0,0.301,0.046,0.404,0.138c0.103,0.091,0.154,0.219,0.154,0.385
					c0,0.146-0.058,0.317-0.172,0.514c-0.115,0.196-0.288,0.384-0.52,0.565c-0.232,0.18-0.522,0.328-0.872,0.447
					c-0.35,0.119-0.753,0.179-1.208,0.179c-1.041,0-1.85-0.298-2.428-0.891c-0.578-0.593-0.867-1.399-0.867-2.416
					c0-0.478,0.071-0.923,0.213-1.333c0.143-0.409,0.352-0.76,0.624-1.053c0.273-0.293,0.609-0.518,1.009-0.674
					c0.399-0.156,0.843-0.234,1.33-0.234c0.632,0,1.175,0.133,1.629,0.4c0.453,0.267,0.792,0.612,1.018,1.035
					c0.225,0.424,0.338,0.855,0.338,1.294c0,0.408-0.117,0.672-0.351,0.794C217.581,477.44,217.253,477.501,216.829,477.501
					 M213.66,476.581h2.938c-0.039-0.555-0.188-0.97-0.448-1.244c-0.259-0.275-0.601-0.413-1.023-0.413
					c-0.404,0-0.736,0.14-0.995,0.418C213.872,475.621,213.715,476.034,213.66,476.581"/>
				<path style="fill:#F9FFF5;" d="M223.435,479.472v-0.161c-0.218,0.249-0.432,0.453-0.644,0.608
					c-0.212,0.157-0.44,0.275-0.688,0.356c-0.247,0.082-0.518,0.122-0.81,0.122c-0.389,0-0.747-0.082-1.077-0.246
					c-0.331-0.164-0.617-0.399-0.858-0.703c-0.241-0.306-0.424-0.663-0.548-1.075c-0.126-0.412-0.188-0.856-0.188-1.335
					c0-1.014,0.248-1.804,0.743-2.369c0.494-0.565,1.146-0.849,1.953-0.849c0.467,0,0.86,0.081,1.181,0.24
					c0.32,0.16,0.633,0.407,0.937,0.738v-2.392c0-0.333,0.067-0.583,0.199-0.754c0.132-0.17,0.322-0.255,0.568-0.255
					c0.245,0,0.434,0.078,0.566,0.234c0.132,0.156,0.2,0.387,0.2,0.691v7.148c0,0.309-0.071,0.54-0.214,0.694
					c-0.143,0.154-0.326,0.232-0.552,0.232c-0.222,0-0.405-0.08-0.549-0.24C223.508,479.996,223.435,479.768,223.435,479.472
					 M220.248,477.091c0,0.44,0.067,0.814,0.205,1.122c0.137,0.309,0.324,0.541,0.562,0.697c0.236,0.156,0.496,0.235,0.777,0.235
					c0.285,0,0.545-0.074,0.781-0.224c0.235-0.147,0.423-0.376,0.563-0.682c0.141-0.307,0.211-0.69,0.211-1.149
					c0-0.432-0.07-0.803-0.211-1.113c-0.14-0.311-0.33-0.548-0.57-0.713c-0.239-0.163-0.501-0.244-0.786-0.244
					c-0.296,0-0.562,0.083-0.795,0.251c-0.233,0.168-0.415,0.409-0.544,0.724C220.312,476.31,220.248,476.676,220.248,477.091"/>
				<path style="fill:#F9FFF5;" d="M230.059,472.324v2.475c0.305-0.315,0.615-0.559,0.933-0.727
					c0.316-0.168,0.708-0.252,1.175-0.252c0.538,0,1.01,0.127,1.416,0.382c0.405,0.257,0.72,0.626,0.943,1.111
					c0.223,0.483,0.336,1.059,0.336,1.725c0,0.49-0.063,0.939-0.187,1.35c-0.125,0.41-0.306,0.765-0.544,1.065
					c-0.238,0.301-0.525,0.534-0.863,0.698c-0.339,0.164-0.712,0.246-1.12,0.246c-0.249,0-0.484-0.029-0.703-0.089
					c-0.22-0.06-0.408-0.137-0.561-0.234c-0.154-0.097-0.286-0.197-0.396-0.3c-0.108-0.103-0.252-0.258-0.43-0.464v0.161
					c0,0.305-0.073,0.535-0.22,0.692c-0.146,0.156-0.332,0.233-0.558,0.233c-0.23,0-0.413-0.077-0.549-0.233
					c-0.137-0.157-0.205-0.388-0.205-0.692v-7.077c0-0.328,0.066-0.576,0.199-0.744c0.132-0.168,0.318-0.252,0.555-0.252
					c0.25,0,0.441,0.08,0.576,0.24C229.992,471.799,230.059,472.027,230.059,472.324 M230.136,477.139
					c0,0.646,0.148,1.141,0.443,1.486c0.294,0.347,0.681,0.521,1.16,0.521c0.407,0,0.759-0.177,1.053-0.531
					c0.295-0.354,0.443-0.862,0.443-1.523c0-0.427-0.062-0.796-0.184-1.103c-0.123-0.31-0.297-0.548-0.522-0.716
					c-0.225-0.168-0.489-0.252-0.79-0.252c-0.308,0-0.584,0.084-0.825,0.252c-0.241,0.168-0.431,0.411-0.57,0.73
					C230.206,476.319,230.136,476.699,230.136,477.139"/>
				<path style="fill:#F9FFF5;" d="M236.963,480.6l0.148-0.363l-1.995-5.021c-0.123-0.288-0.185-0.499-0.185-0.629
					c0-0.139,0.037-0.268,0.107-0.386c0.072-0.119,0.17-0.214,0.294-0.285c0.125-0.071,0.254-0.107,0.389-0.107
					c0.233,0,0.409,0.075,0.528,0.224c0.12,0.147,0.224,0.36,0.314,0.638l1.372,3.988l1.3-3.71c0.103-0.3,0.196-0.535,0.279-0.706
					c0.083-0.17,0.17-0.285,0.264-0.344c0.093-0.06,0.225-0.09,0.395-0.09c0.123,0,0.24,0.032,0.354,0.099
					c0.113,0.065,0.199,0.153,0.261,0.265c0.062,0.11,0.092,0.227,0.092,0.35c-0.016,0.074-0.041,0.182-0.077,0.321
					c-0.037,0.138-0.079,0.279-0.13,0.421l-2.113,5.532c-0.183,0.486-0.36,0.868-0.535,1.146c-0.174,0.277-0.404,0.49-0.692,0.639
					c-0.287,0.148-0.674,0.223-1.161,0.223c-0.474,0-0.831-0.052-1.067-0.154c-0.238-0.104-0.356-0.291-0.356-0.564
					c0-0.186,0.056-0.329,0.169-0.43c0.112-0.102,0.28-0.152,0.501-0.152c0.087,0,0.172,0.012,0.255,0.036
					c0.103,0.023,0.192,0.036,0.267,0.036c0.186,0,0.332-0.028,0.439-0.084c0.107-0.055,0.202-0.15,0.288-0.288
					C236.754,481.065,236.852,480.864,236.963,480.6"/>
				<path style="fill:#F9FFF5;" d="M260.439,473.948h0.387v-0.486c0-0.509,0.063-0.911,0.191-1.211
					c0.128-0.299,0.348-0.517,0.654-0.653c0.307-0.135,0.728-0.203,1.26-0.203c0.951,0,1.422,0.228,1.422,0.696
					c0,0.148-0.05,0.277-0.15,0.384c-0.098,0.105-0.215,0.16-0.349,0.16c-0.064,0-0.174-0.012-0.33-0.037
					c-0.148-0.021-0.283-0.035-0.39-0.035c-0.292,0-0.479,0.088-0.566,0.26c-0.08,0.172-0.122,0.418-0.122,0.74v0.386h0.396
					c0.619,0,0.926,0.186,0.926,0.56c0,0.262-0.079,0.432-0.245,0.503c-0.163,0.071-0.39,0.107-0.681,0.107h-0.396v4.294
					c0,0.319-0.075,0.563-0.23,0.73c-0.15,0.17-0.347,0.254-0.59,0.254c-0.23,0-0.419-0.084-0.573-0.254
					c-0.153-0.168-0.227-0.411-0.227-0.73v-4.294h-0.446c-0.242,0-0.427-0.053-0.558-0.164c-0.131-0.106-0.197-0.249-0.197-0.424
					C259.625,474.141,259.896,473.948,260.439,473.948"/>
				<path style="fill:#F9FFF5;" d="M265.745,478.058v1.355c0,0.327-0.083,0.574-0.233,0.737c-0.154,0.166-0.35,0.247-0.586,0.247
					c-0.238,0-0.43-0.082-0.579-0.251c-0.148-0.164-0.226-0.409-0.226-0.733v-4.514c0-0.729,0.263-1.094,0.788-1.094
					c0.272,0,0.464,0.084,0.584,0.256c0.118,0.17,0.185,0.421,0.198,0.755c0.192-0.334,0.39-0.585,0.592-0.755
					c0.208-0.172,0.477-0.256,0.819-0.256c0.343,0,0.67,0.084,0.991,0.256c0.322,0.17,0.481,0.398,0.481,0.678
					c0,0.196-0.069,0.363-0.204,0.488c-0.138,0.131-0.284,0.194-0.441,0.194c-0.061,0-0.207-0.039-0.432-0.111
					c-0.228-0.071-0.432-0.108-0.603-0.108c-0.237,0-0.433,0.063-0.583,0.186c-0.151,0.128-0.269,0.31-0.352,0.554
					c-0.081,0.246-0.138,0.541-0.171,0.877C265.76,477.158,265.745,477.57,265.745,478.058"/>
				<path style="fill:#F9FFF5;" d="M273.195,477.499h-3.171c0.006,0.368,0.077,0.694,0.222,0.975
					c0.147,0.278,0.338,0.491,0.578,0.636c0.24,0.142,0.502,0.212,0.793,0.212c0.193,0,0.371-0.02,0.53-0.069
					c0.159-0.044,0.315-0.116,0.467-0.213c0.151-0.096,0.287-0.199,0.415-0.313c0.126-0.109,0.291-0.261,0.494-0.449
					c0.083-0.071,0.202-0.109,0.355-0.109c0.168,0,0.301,0.047,0.405,0.139c0.103,0.093,0.152,0.22,0.152,0.386
					c0,0.147-0.055,0.317-0.167,0.513c-0.117,0.198-0.29,0.385-0.522,0.566c-0.234,0.179-0.524,0.329-0.873,0.445
					c-0.35,0.119-0.754,0.18-1.208,0.18c-1.044,0-1.853-0.296-2.429-0.889c-0.578-0.596-0.869-1.401-0.869-2.418
					c0-0.479,0.072-0.924,0.216-1.334c0.142-0.412,0.35-0.76,0.625-1.055c0.272-0.295,0.605-0.518,1.008-0.674
					c0.398-0.156,0.841-0.234,1.33-0.234c0.631,0,1.175,0.134,1.629,0.404c0.452,0.264,0.796,0.609,1.019,1.033
					c0.225,0.426,0.339,0.855,0.339,1.297c0,0.405-0.119,0.669-0.352,0.791C273.947,477.44,273.62,477.499,273.195,477.499
					 M270.024,476.578h2.939c-0.039-0.554-0.186-0.969-0.446-1.242c-0.262-0.276-0.6-0.412-1.024-0.412
					c-0.404,0-0.736,0.137-0.995,0.418C270.238,475.621,270.079,476.032,270.024,476.578"/>
				<path style="fill:#F9FFF5;" d="M279.938,477.499h-3.17c0.004,0.368,0.078,0.694,0.222,0.975
					c0.145,0.278,0.336,0.491,0.575,0.636c0.239,0.142,0.503,0.212,0.795,0.212c0.192,0,0.37-0.02,0.528-0.069
					c0.161-0.044,0.315-0.116,0.469-0.213c0.151-0.096,0.287-0.199,0.415-0.313c0.124-0.109,0.289-0.261,0.492-0.449
					c0.084-0.071,0.204-0.109,0.354-0.109c0.169,0,0.303,0.047,0.406,0.139c0.104,0.093,0.151,0.22,0.151,0.386
					c0,0.147-0.055,0.317-0.172,0.513c-0.109,0.198-0.284,0.385-0.518,0.566c-0.232,0.179-0.525,0.329-0.872,0.445
					c-0.349,0.119-0.755,0.18-1.209,0.18c-1.042,0-1.85-0.296-2.43-0.889c-0.576-0.596-0.867-1.401-0.867-2.418
					c0-0.479,0.072-0.924,0.217-1.334c0.143-0.412,0.35-0.76,0.623-1.055c0.271-0.295,0.607-0.518,1.009-0.674
					c0.398-0.156,0.844-0.234,1.331-0.234c0.63,0,1.174,0.134,1.633,0.404c0.45,0.264,0.791,0.609,1.013,1.033
					c0.225,0.426,0.341,0.855,0.341,1.297c0,0.405-0.12,0.669-0.352,0.791C280.688,477.44,280.36,477.499,279.938,477.499
					 M276.768,476.578h2.938c-0.039-0.554-0.189-0.969-0.446-1.242c-0.264-0.276-0.602-0.412-1.026-0.412
					c-0.404,0-0.734,0.137-0.996,0.418C276.978,475.621,276.82,476.032,276.768,476.578"/>
				<path style="fill:#F9FFF5;" d="M283.487,474.717v0.194c0.304-0.376,0.622-0.651,0.953-0.828
					c0.324-0.178,0.699-0.267,1.114-0.267c0.497,0,0.96,0.13,1.38,0.386c0.419,0.259,0.749,0.635,0.992,1.129
					c0.243,0.497,0.366,1.081,0.366,1.759c0,0.497-0.07,0.957-0.21,1.376c-0.14,0.417-0.336,0.767-0.58,1.05
					c-0.246,0.281-0.535,0.501-0.869,0.653c-0.339,0.151-0.694,0.228-1.079,0.228c-0.462,0-0.853-0.093-1.166-0.28
					c-0.315-0.183-0.614-0.458-0.901-0.815v2.433c0,0.71-0.26,1.068-0.776,1.068c-0.307,0-0.506-0.091-0.608-0.273
					c-0.094-0.188-0.145-0.453-0.145-0.808v-6.996c0-0.31,0.066-0.537,0.2-0.692c0.135-0.149,0.32-0.228,0.554-0.228
					c0.23,0,0.416,0.078,0.559,0.234C283.417,474.197,283.487,474.42,283.487,474.717 M286.665,477.071
					c0-0.427-0.066-0.796-0.196-1.102c-0.13-0.308-0.313-0.542-0.542-0.705c-0.229-0.164-0.488-0.247-0.77-0.247
					c-0.446,0-0.824,0.177-1.131,0.527c-0.308,0.354-0.462,0.872-0.462,1.558c0,0.642,0.152,1.145,0.46,1.504
					c0.305,0.358,0.679,0.536,1.133,0.536c0.269,0,0.519-0.078,0.748-0.232c0.231-0.158,0.415-0.391,0.553-0.703
					C286.596,477.893,286.665,477.514,286.665,477.071"/>
				<path style="fill:#F9FFF5;" d="M289.926,473.051c-0.228,0-0.418-0.071-0.577-0.21c-0.163-0.139-0.243-0.332-0.243-0.585
					c0-0.23,0.082-0.419,0.249-0.568c0.163-0.147,0.354-0.223,0.571-0.223c0.212,0,0.397,0.066,0.558,0.199
					c0.162,0.137,0.244,0.334,0.244,0.592c0,0.25-0.079,0.444-0.236,0.585C290.333,472.979,290.145,473.051,289.926,473.051
					 M290.727,474.725v4.688c0,0.322-0.077,0.568-0.23,0.732c-0.156,0.169-0.352,0.251-0.589,0.251c-0.238,0-0.428-0.083-0.58-0.254
					c-0.147-0.173-0.223-0.416-0.223-0.73v-4.642c0-0.319,0.076-0.56,0.223-0.722c0.152-0.165,0.342-0.245,0.58-0.245
					c0.237,0,0.433,0.08,0.589,0.245C290.65,474.212,290.727,474.439,290.727,474.725"/>
				<path style="fill:#F9FFF5;" d="M295.953,479.656l-1.428-2.354l-0.881,0.83v1.291c0,0.312-0.082,0.551-0.248,0.719
					c-0.16,0.17-0.353,0.254-0.565,0.254c-0.25,0-0.447-0.082-0.589-0.251c-0.141-0.164-0.214-0.41-0.214-0.733v-6.914
					c0-0.358,0.071-0.632,0.207-0.821c0.139-0.19,0.341-0.282,0.596-0.282c0.249,0,0.445,0.085,0.593,0.257
					c0.146,0.169,0.221,0.421,0.221,0.75v3.935l1.823-1.914c0.226-0.235,0.394-0.4,0.517-0.487c0.118-0.086,0.262-0.13,0.431-0.13
					c0.204,0,0.371,0.064,0.51,0.193c0.132,0.129,0.2,0.291,0.2,0.483c0,0.236-0.222,0.556-0.659,0.95l-0.861,0.79l1.662,2.614
					c0.122,0.195,0.212,0.34,0.265,0.44c0.053,0.1,0.082,0.2,0.082,0.289c0,0.258-0.071,0.459-0.213,0.609
					c-0.141,0.148-0.327,0.222-0.554,0.222c-0.198,0-0.353-0.052-0.459-0.16C296.281,480.128,296.134,479.934,295.953,479.656"/>
				<path style="fill:#F9FFF5;" d="M299.475,480.397c-0.245,0-0.455-0.079-0.634-0.238c-0.178-0.156-0.268-0.379-0.268-0.665
					c0-0.241,0.086-0.449,0.257-0.622c0.171-0.175,0.379-0.262,0.63-0.262c0.248,0,0.46,0.087,0.639,0.257
					c0.174,0.173,0.264,0.383,0.264,0.627c0,0.282-0.09,0.505-0.264,0.662C299.92,480.317,299.712,480.397,299.475,480.397"/>
				<path style="fill:#F9FFF5;" d="M307.536,478.39c0,0.2-0.061,0.418-0.182,0.647c-0.119,0.232-0.305,0.448-0.554,0.656
					c-0.246,0.208-0.557,0.376-0.935,0.502c-0.375,0.127-0.8,0.192-1.268,0.192c-1.005,0-1.786-0.294-2.35-0.876
					c-0.559-0.585-0.841-1.368-0.841-2.351c0-0.667,0.128-1.253,0.388-1.765c0.255-0.509,0.627-0.904,1.113-1.184
					c0.486-0.28,1.072-0.419,1.746-0.419c0.421,0,0.806,0.061,1.157,0.185c0.352,0.122,0.646,0.282,0.891,0.475
					c0.242,0.196,0.429,0.402,0.557,0.62c0.13,0.22,0.191,0.425,0.191,0.617c0,0.191-0.07,0.356-0.213,0.491
					c-0.148,0.135-0.322,0.203-0.524,0.203c-0.137,0-0.249-0.035-0.338-0.103c-0.091-0.07-0.191-0.182-0.3-0.339
					c-0.198-0.299-0.403-0.526-0.623-0.675c-0.214-0.151-0.487-0.227-0.82-0.227c-0.475,0-0.864,0.187-1.159,0.562
					c-0.292,0.372-0.439,0.887-0.439,1.533c0,0.306,0.038,0.588,0.114,0.843c0.073,0.254,0.182,0.472,0.324,0.652
					c0.145,0.18,0.315,0.315,0.517,0.409c0.202,0.096,0.426,0.141,0.665,0.141c0.325,0,0.603-0.075,0.836-0.226
					c0.234-0.15,0.439-0.379,0.615-0.689c0.1-0.182,0.205-0.324,0.319-0.428c0.113-0.102,0.256-0.155,0.422-0.155
					c0.198,0,0.362,0.077,0.491,0.227C307.47,478.059,307.536,478.221,307.536,478.39"/>
				<path style="fill:#F9FFF5;" d="M314.53,477.102c0,0.482-0.076,0.928-0.223,1.337c-0.154,0.408-0.37,0.759-0.656,1.05
					c-0.284,0.293-0.626,0.518-1.02,0.675c-0.399,0.155-0.843,0.234-1.336,0.234c-0.491,0-0.934-0.079-1.326-0.239
					c-0.389-0.156-0.731-0.384-1.016-0.677c-0.288-0.298-0.506-0.646-0.657-1.048c-0.145-0.402-0.22-0.847-0.22-1.332
					c0-0.491,0.077-0.94,0.225-1.349c0.151-0.409,0.368-0.757,0.649-1.045c0.281-0.289,0.62-0.511,1.018-0.669
					c0.402-0.156,0.843-0.234,1.326-0.234c0.49,0,0.936,0.078,1.336,0.239c0.398,0.156,0.739,0.384,1.027,0.675
					c0.286,0.296,0.502,0.642,0.649,1.044C314.455,476.17,314.53,476.613,314.53,477.102 M312.902,477.102
					c0-0.661-0.146-1.175-0.435-1.543c-0.289-0.371-0.681-0.555-1.171-0.555c-0.318,0-0.597,0.083-0.84,0.246
					c-0.242,0.164-0.426,0.406-0.556,0.728c-0.131,0.321-0.197,0.696-0.197,1.124c0,0.425,0.064,0.793,0.193,1.109
					c0.13,0.318,0.314,0.561,0.554,0.729c0.241,0.166,0.521,0.252,0.846,0.252c0.49,0,0.882-0.185,1.171-0.557
					C312.757,478.266,312.902,477.753,312.902,477.102"/>
				<path style="fill:#F9FFF5;" d="M320.713,477.221v2.154c0,0.342-0.075,0.595-0.23,0.768c-0.156,0.17-0.357,0.255-0.611,0.255
					c-0.245,0-0.446-0.085-0.595-0.255c-0.154-0.173-0.233-0.426-0.233-0.768v-2.582c0-0.408-0.013-0.727-0.039-0.952
					c-0.029-0.222-0.105-0.41-0.228-0.552c-0.123-0.147-0.317-0.22-0.581-0.22c-0.532,0-0.88,0.181-1.048,0.55
					c-0.168,0.36-0.254,0.884-0.254,1.567v2.189c0,0.336-0.077,0.592-0.227,0.765c-0.155,0.171-0.354,0.258-0.603,0.258
					c-0.247,0-0.448-0.087-0.605-0.258c-0.157-0.173-0.234-0.429-0.234-0.765v-4.637c0-0.306,0.068-0.538,0.209-0.694
					c0.143-0.161,0.328-0.239,0.556-0.239c0.224,0,0.407,0.077,0.558,0.223c0.147,0.148,0.221,0.354,0.221,0.615v0.153
					c0.284-0.335,0.585-0.582,0.904-0.738c0.322-0.162,0.676-0.241,1.07-0.241c0.406,0,0.757,0.082,1.048,0.244
					c0.294,0.162,0.534,0.409,0.726,0.735c0.274-0.331,0.568-0.577,0.881-0.738c0.313-0.16,0.658-0.241,1.039-0.241
					c0.441,0,0.825,0.089,1.147,0.262c0.318,0.174,0.558,0.425,0.717,0.747c0.139,0.296,0.206,0.757,0.206,1.386v3.164
					c0,0.342-0.076,0.595-0.229,0.768c-0.154,0.17-0.359,0.255-0.611,0.255c-0.247,0-0.446-0.087-0.603-0.258
					c-0.156-0.173-0.234-0.429-0.234-0.765v-2.726c0-0.35-0.016-0.627-0.044-0.837c-0.029-0.21-0.11-0.387-0.239-0.528
					c-0.132-0.143-0.332-0.215-0.596-0.215c-0.213,0-0.417,0.066-0.608,0.192c-0.192,0.123-0.343,0.297-0.451,0.508
					C320.774,476.043,320.713,476.527,320.713,477.221"/>
				<path style="fill:#F9FFF5;" d="M245.272,476.71c-0.001-0.003-0.001-0.007-0.001-0.012
					C245.271,476.703,245.271,476.707,245.272,476.71"/>
				<path style="fill:#F9FFF5;" d="M245.354,477.228h0.002c-0.031-0.147-0.055-0.294-0.075-0.438
					C245.301,476.935,245.325,477.082,245.354,477.228"/>
				<path style="fill:#F9FFF5;" d="M245.891,478.731c-0.004-0.006-0.007-0.013-0.011-0.021
					C245.883,478.719,245.887,478.726,245.891,478.731"/>
				<path style="fill:#F9FFF5;" d="M245.839,478.632c-0.014-0.027-0.028-0.057-0.041-0.084
					C245.811,478.577,245.826,478.604,245.839,478.632"/>
				<path style="fill:#F9FFF5;" d="M245.505,477.807c0.079,0.251,0.175,0.493,0.286,0.725c-0.113-0.236-0.206-0.48-0.284-0.725
					H245.505z"/>
				<path style="fill:#F9FFF5;" d="M251.545,470.499c0.314,0,0.545,0.025,0.811,0.069l0.074-0.477c0,0-0.731-0.225-1.693-0.146
					l-0.076-0.259c0.299-0.064,0.523-0.329,0.523-0.646c0-0.364-0.296-0.659-0.661-0.659c-0.364,0-0.659,0.295-0.659,0.659
					c0,0.317,0.224,0.583,0.522,0.646l0.083,0.289c-1.021,0.141-1.834,0.539-1.834,0.539l0.145,0.441
					c0.618-0.205,1.153-0.331,1.64-0.383C250.894,470.522,251.254,470.499,251.545,470.499"/>
				<path style="fill:#F9FFF5;" d="M245.878,472.911l0.003-0.005c0.024-0.031,0.048-0.062,0.071-0.09l-0.195-0.141l-0.305-0.223
					c-0.017,0.023-0.497,0.465-0.876,1.279c-0.015-0.025-0.035-0.05-0.056-0.074c-0.113-0.124-0.272-0.188-0.474-0.184h-0.009
					c-0.125,0-0.211-0.041-0.267-0.092c0.056-0.071,0.09-0.16,0.09-0.259c0-0.229-0.188-0.418-0.419-0.418
					c-0.23,0-0.417,0.188-0.417,0.418c0,0.232,0.187,0.419,0.417,0.419c0.036,0,0.07-0.007,0.104-0.014
					c0.103,0.114,0.266,0.214,0.505,0.209c0.122-0.001,0.213,0.03,0.273,0.098c0.07,0.075,0.093,0.185,0.1,0.267
					c0,0-0.001,0.003-0.002,0.003c-0.273,0.744-0.194,1.669-0.194,1.669l0.661,0.026c0.014-0.337,0.062-0.927,0.233-1.395
					C245.45,473.501,245.861,472.935,245.878,472.911"/>
				<path style="fill:#F9FFF5;" d="M257.295,471.052c-0.229,0-0.418,0.187-0.418,0.418c0,0.036,0.006,0.07,0.015,0.104
					c-0.114,0.104-0.214,0.267-0.21,0.507c0.001,0.123-0.03,0.212-0.098,0.272c-0.053,0.047-0.118,0.071-0.185,0.088
					c-0.492-0.689-1.098-1.11-1.098-1.11l-0.474,0.509c0.358,0.326,0.725,0.734,1.08,1.244c0.246,0.352,0.499,0.806,0.711,1.259
					l0.639-0.304c0,0-0.291-0.722-0.703-1.37c0.072-0.024,0.143-0.064,0.207-0.119c0.125-0.113,0.186-0.273,0.183-0.475
					c-0.001-0.13,0.042-0.218,0.094-0.275c0.07,0.055,0.16,0.089,0.257,0.089c0.232,0,0.419-0.188,0.419-0.418
					C257.714,471.238,257.527,471.052,257.295,471.052"/>
				<path style="fill:#F9FFF5;" d="M255.635,476.803c-0.881,0.43-2.33,0.996-4.238,1.263c-0.749,0.104-1.475,0.142-2.143,0.142
					c-0.869,0-1.637-0.064-2.227-0.139c-0.672-0.085-1.198-0.188-1.52-0.261c0.077,0.244,0.171,0.487,0.284,0.724
					c0.002,0.006,0.004,0.013,0.008,0.017c0.014,0.027,0.027,0.057,0.041,0.084c0.013,0.027,0.027,0.054,0.04,0.079
					c0.004,0.008,0.007,0.015,0.011,0.021c0.189,0.356,0.416,0.685,0.675,0.968c0.9,0.985,1.817,1.141,1.826,1.142l0.014,0.002
					l0.014,0.005c0.008,0.003,0.821,0.265,2.057,0.265c1.215,0,2.41-0.244,3.546-0.729c0.843-0.431,1.64-1.085,2.034-1.669
					c0.305-0.451,0.525-0.933,0.656-1.434c0.069-0.266,0.124-0.691,0.092-1.14C256.557,476.308,256.165,476.545,255.635,476.803"/>
				<path style="fill:#F9FFF5;" d="M246.161,473.119c-0.025,0.037-0.408,0.578-0.709,1.408c-0.226,0.622-0.216,1.527-0.216,1.538
					v0.001c0,0.213,0.012,0.424,0.036,0.632c0,0.005,0,0.008,0.001,0.012c0.002,0.026,0.007,0.052,0.009,0.079
					c0.019,0.145,0.043,0.291,0.074,0.438c0.437,0.111,3.049,0.721,5.967,0.313c1.83-0.254,3.219-0.795,4.063-1.204
					c0.7-0.34,1.151-0.647,1.324-0.773c-0.173-0.643-0.651-1.65-1.089-2.279c-1.254-1.791-2.605-2.25-3.298-2.364
					c-0.265-0.043-0.477-0.068-0.778-0.068c-0.279,0-0.626,0.021-1.089,0.071c-0.465,0.048-0.982,0.17-1.583,0.372
					c-0.842,0.281-1.604,0.726-2.204,1.28l-0.021,0.019C246.56,472.676,246.374,472.848,246.161,473.119 M253.83,472.703
					c0.601,0,1.09,0.487,1.09,1.089s-0.489,1.09-1.09,1.09c-0.602,0-1.089-0.488-1.089-1.09S253.228,472.703,253.83,472.703
					 M248.679,472.659c0.973,0,1.761,0.789,1.761,1.761c0,0.973-0.788,1.76-1.761,1.76c-0.972,0-1.76-0.787-1.76-1.76
					C246.918,473.448,247.706,472.659,248.679,472.659"/>
			</g>
		</g>
	</g>
</g>
</svg>
